<svg width="753" height="423" viewBox="0 0 753 423" fill="none" xmlns="http://www.w3.org/2000/svg">
<path d="M228.495 89.1603C230.094 90.7598 230.094 93.3944 228.401 94.8998C225.39 97.5344 222.379 99.6044 219.462 101.11C212.687 104.591 194.904 104.027 203.843 62.5325C204.313 60.5566 205.442 56.5106 195.845 60.7447C189.447 63.6616 183.425 66.9548 177.591 71.5652C177.591 82.7621 178.25 94.5235 179.567 104.873C179.85 107.038 178.344 109.202 176.18 109.578C173.828 109.954 171.758 108.449 171.381 106.191C170.346 99.1339 169.688 89.5366 169.594 79.1866C166.395 82.7621 163.29 86.9962 160.373 91.8889C159.526 94.1471 158.679 96.4053 157.926 98.6635C157.174 100.733 155.01 101.863 152.846 101.204C150.681 100.451 149.646 98.193 150.399 96.0289C154.539 85.3025 161.69 72.2239 169.782 60.6507V60.3684C164.419 61.4034 158.491 62.1561 153.975 62.4384C151.716 62.5325 149.835 60.7447 149.835 58.4866C149.835 56.2284 151.716 54.4406 153.881 54.4406C158.585 54.2525 164.701 53.782 170.158 52.5588C170.629 46.537 171.193 40.8915 171.946 35.9988C172.322 33.8347 174.486 32.4233 176.745 32.8938C178.909 33.3642 180.32 35.5283 179.944 37.7865C179.285 41.6442 178.815 46.1606 178.344 51.2415C179.379 51.1474 180.32 51.4297 181.167 52.0884C182.955 53.4997 183.143 56.0402 181.637 57.7338C180.32 59.2393 179.003 60.8388 177.78 62.3443V62.4384C185.119 57.1693 192.458 53.5938 198.197 52.1824C209.488 49.4538 214.287 54.0643 211.841 65.5434C206.195 91.6066 210.806 101.392 222.849 89.2544C224.355 87.6548 226.895 87.5607 228.495 89.1603Z" fill="black"/>
<path d="M288.149 50.4888C283.82 52.6529 278.739 54.4406 273.282 55.6638C268.954 68.8366 262.932 83.6089 254.37 96.7817C253.147 98.7576 250.512 99.228 248.536 98.0048C246.654 96.6876 246.184 94.053 247.407 92.1712C255.123 80.2216 260.392 68.3661 264.344 57.1693C260.392 57.5456 256.534 57.7338 252.77 57.5456C250.512 57.3575 248.913 55.3815 249.101 53.1234C249.383 50.9593 251.265 49.2656 253.523 49.3597C257.757 49.4538 262.462 49.1715 267.166 48.4188C268.578 43.9024 269.801 39.4801 270.93 35.246C271.494 32.9879 273.659 31.6706 275.917 32.3292C278.081 32.8938 279.398 35.152 278.834 37.316C278.081 40.1388 277.14 43.2438 276.199 46.4429C279.21 45.502 282.033 44.3729 284.667 43.0556C286.737 42.0206 289.09 42.7733 290.03 44.7492C290.971 46.9133 290.125 49.4538 288.149 50.4888ZM315.717 95.1821C317.505 96.4994 317.787 99.1339 316.47 100.828C315.153 102.615 312.612 102.992 310.825 101.674C308.096 99.6044 304.238 96.8758 299.722 94.8057C299.91 99.5103 297.652 108.167 286.267 108.167C266.225 108.167 261.709 81.5389 290.219 84.3616C288.243 67.3311 293.888 62.062 299.816 59.8979C297.84 59.6157 295.77 59.5216 293.794 59.6157C291.536 59.8038 289.56 58.2984 289.466 56.1343C289.278 53.782 290.971 51.8061 293.324 51.712C315.153 50.7711 317.035 64.2261 307.249 65.167C297.652 66.1079 296.052 69.6834 298.687 85.6789C305.838 88.1253 311.86 92.2653 315.717 95.1821ZM279.586 98.0989C282.974 101.674 293.324 103.368 291.536 92.0771C283.162 89.2544 274.976 93.3003 279.586 98.0989Z" fill="black"/>
<path d="M405.857 48.7952C400.023 48.7952 395.318 44.0906 395.318 38.257C395.318 32.5174 400.023 27.7188 405.857 27.7188C411.69 27.7188 416.395 32.5174 416.395 38.257C416.395 44.0906 411.596 48.7952 405.857 48.7952ZM405.857 43.9024C408.962 43.9024 411.502 41.4561 411.502 38.257C411.502 35.152 408.962 32.6115 405.857 32.6115C402.658 32.6115 400.117 35.152 400.117 38.257C400.117 41.4561 402.752 43.9024 405.857 43.9024ZM366.903 107.226C343.38 107.226 336.511 75.7052 356.741 53.2175C352.695 54.5347 347.896 54.817 343.568 54.0643C341.404 53.5938 339.993 51.3356 340.557 48.9834C341.028 46.9133 343.192 45.6902 345.356 46.1606C354.201 48.0424 362.386 42.7733 366.809 40.7033C371.796 38.351 377.065 44.3729 370.761 49.642C341.028 77.5871 352.789 97.0639 363.892 98.8517C373.866 100.545 387.415 94.1471 385.345 68.272C384.78 61.6857 384.498 47.6661 384.498 47.1956C384.498 41.5501 391.649 39.7624 394.001 44.6552C397.765 52.5588 401.434 58.4866 410.279 64.7907C412.161 66.1079 412.819 68.6484 411.784 70.6243C410.843 72.6943 408.303 73.353 406.515 72.1298C400.964 68.3661 395.977 63.2852 392.966 59.1452C393.06 63.5675 393.719 71.6593 393.625 75.423C393.06 94.6176 382.522 107.226 366.903 107.226Z" fill="black"/>
<path d="M492.138 96.8757C494.02 97.9108 494.867 100.263 493.926 102.333C493.079 104.215 490.727 104.968 488.939 103.838C485.552 101.768 480.377 98.7576 474.92 96.8757C473.979 111.084 458.454 110.989 450.738 105.25C441.423 98.2871 446.786 84.4557 466.922 87.5607C466.451 77.5871 465.322 60.9329 464.287 52.9352C464.005 50.7711 465.416 48.7011 467.486 48.3247C469.556 47.8543 471.626 49.2656 471.909 51.3356C472.379 54.7229 472.85 59.4275 473.226 64.6025C478.401 63.9438 483.952 62.9088 487.528 61.8738C489.598 61.2152 491.762 62.4384 492.138 64.5084C492.703 66.6725 491.385 68.9307 489.315 69.4952C485.364 70.5302 479.248 71.6593 473.885 72.412C474.261 78.7162 474.637 84.9262 474.825 89.3485C478.965 90.4776 486.681 93.6766 492.138 96.8757ZM461.559 101.11C465.699 101.392 467.204 99.7926 467.204 95.088C460.524 93.5826 454.408 94.6176 454.031 97.158C453.843 98.6635 457.889 100.922 461.559 101.11Z" fill="black"/>
<path d="M598.367 75.1407C600.531 75.9875 601.754 78.528 601.002 80.7862C594.509 99.4162 582.089 106.379 572.774 105.156C554.897 102.803 561.766 83.7971 556.214 81.4448C551.792 79.6571 545.394 85.9612 538.337 99.5103C537.867 100.828 537.396 102.239 537.02 103.556C536.267 105.72 533.915 107.038 531.751 106.379C529.492 105.814 528.175 103.462 528.928 101.204C535.514 80.6921 549.91 51.2415 558.002 36.5633C559.131 34.4933 561.766 33.7406 563.742 34.8697C565.812 35.9047 566.564 38.4451 565.341 40.5151C560.354 49.2656 553.956 61.9679 548.217 74.9525C554.991 70.4361 560.825 72.1298 564.118 76.9284C568.917 83.9853 564.306 94.8057 572.868 96.2171C580.866 97.5344 588.017 90.948 592.91 77.6812C593.757 75.423 596.109 74.2939 598.367 75.1407Z" fill="black"/>
<path d="M38.2425 343.497C40.1243 347.073 41.8179 351.589 43.2293 355.918C43.888 358.082 42.5707 360.434 40.4066 361.187C38.3366 361.845 36.1725 360.622 35.6079 358.458C35.4197 357.799 35.3257 357.141 35.1375 356.576L29.492 357.988V389.979C29.492 392.143 27.6102 394.024 25.4461 394.024C23.282 394.024 21.4002 392.143 21.4002 389.979V359.399C17.9188 359.869 14.4374 360.246 11.2383 360.434C6.91013 360.622 5.31058 354.788 9.26241 352.342C11.7088 350.742 14.4374 348.39 17.072 345.191C15.1901 342.086 12.5556 338.887 10.4856 336.441C8.32149 334.182 8.32149 330.513 10.3915 327.878C13.5906 324.115 16.1311 318.94 17.2602 314.141C17.8247 311.977 19.8947 310.66 21.8706 311.13C24.1288 311.695 25.4461 313.953 24.8815 316.117C22.9056 322.703 20.2711 328.067 17.072 332.207C18.8597 334.182 20.5533 336.252 21.9647 338.511C25.2579 333.242 28.1747 326.937 29.9625 319.786C30.527 317.622 32.597 316.399 34.667 316.776C36.8311 317.34 38.1484 319.504 37.6779 321.574C34.4788 333.806 28.5511 344.815 21.0238 352.154C24.5052 351.495 28.6452 350.554 32.2206 349.331C31.7502 348.39 31.1856 347.449 30.6211 346.508C29.492 344.627 30.2447 342.086 32.3147 341.239C34.667 340.392 37.2075 341.333 38.2425 343.497ZM83.4062 333.9H67.1285V345.285H79.9249C82.1831 345.285 83.9708 347.073 83.9708 349.331C83.9708 351.495 82.1831 353.377 79.9249 353.377H46.2402C43.982 353.377 42.1943 351.495 42.1943 349.331C42.1943 347.073 43.982 345.285 46.2402 345.285H58.9425V333.9H42.7589C40.5007 333.9 38.7129 332.112 38.7129 329.854C38.7129 327.596 40.5007 325.808 42.7589 325.808H58.9425V316.023C58.9425 313.765 60.7303 311.883 62.9885 311.883C65.2466 311.883 67.1285 313.765 67.1285 316.023V325.808H83.4062C85.6644 325.808 87.5462 327.596 87.5462 329.854C87.5462 332.112 85.6644 333.9 83.4062 333.9ZM50.7566 359.493H75.2203C78.6076 359.493 81.4303 362.316 81.4303 365.703V387.062C81.4303 390.449 78.6076 393.272 75.2203 393.272H50.7566C47.3693 393.272 44.5466 390.449 44.5466 387.062V365.703C44.5466 362.316 47.3693 359.493 50.7566 359.493ZM17.6365 361.469C19.8006 361.939 21.212 364.009 20.9297 366.079C19.8947 372.101 17.9188 380.663 14.9079 388.191C14.0611 390.261 11.6147 391.39 9.3565 390.731C7.1924 389.884 6.25149 387.532 7.28649 385.556C9.92104 379.534 11.897 372.478 13.2142 364.574C13.5906 362.41 15.5665 360.998 17.6365 361.469ZM37.6779 364.856C39.3716 368.338 41.8179 376.523 42.853 380.569C43.4175 382.733 42.1943 384.803 40.0302 385.368C37.9602 385.933 35.9843 384.709 35.5138 382.545C34.5729 378.405 32.1266 370.784 30.2447 367.679C29.0215 365.797 29.8684 363.351 31.9384 362.598C34.1966 361.751 36.6429 362.692 37.6779 364.856ZM52.7325 385.18H73.2444V367.585H52.7325V385.18Z" fill="black"/>
<path d="M133.369 373.136C135.25 374.548 135.721 377.276 134.686 379.534C133.745 381.416 131.205 381.887 129.511 380.475C127.723 378.876 125.559 377.276 123.207 375.771C118.973 382.545 113.421 388.003 106.553 392.143C104.671 393.272 102.13 392.519 101.189 390.449C100.154 388.473 100.907 386.121 102.789 384.803C108.529 381.134 112.857 376.712 116.15 371.819C113.139 370.313 109.94 369.09 106.835 368.149C103.824 367.208 102.319 363.915 103.636 360.998C106.929 354.036 108.811 346.226 109.94 337.852H104.859C102.695 337.852 101.001 336.064 101.001 333.9C101.001 331.736 102.789 330.042 104.859 330.042H110.787C111.163 325.526 111.351 320.822 111.445 315.929C111.445 313.765 113.233 311.883 115.491 311.883C117.655 311.883 119.443 313.671 119.349 315.929C119.255 320.163 119.161 324.962 118.69 330.042H127.817C131.205 330.042 134.027 332.865 133.839 336.252C133.18 349.049 130.922 359.869 126.97 368.714C129.417 370.219 131.581 371.725 133.369 373.136ZM181.543 350.46C182.578 352.436 181.826 354.788 179.944 355.729C171.193 359.775 164.795 356.67 160.373 346.32C159.62 344.532 158.773 342.462 157.644 339.922L143.907 341.239V347.449C147.67 346.885 151.434 346.132 154.539 345.285C156.797 344.721 159.15 345.944 159.714 348.108C160.373 350.46 159.056 352.812 156.797 353.377C152.281 354.506 146.73 355.447 142.119 356.012C138.826 356.388 135.909 353.753 135.909 350.272V325.808C135.909 322.327 138.544 319.504 142.025 319.128C151.811 318.187 163.007 316.305 171.099 313.859C173.169 313.294 175.333 314.517 175.804 316.587C176.274 318.846 175.051 321.01 172.793 321.668C169.123 322.609 164.325 323.644 159.526 324.491L162.255 331.642L177.309 330.137C179.473 329.854 181.355 331.454 181.543 333.618C181.732 335.688 180.226 337.664 178.062 337.852L165.266 339.169C165.83 340.581 166.395 341.898 166.959 343.027C170.252 349.707 172.228 351.025 176.368 348.955C178.25 348.108 180.602 348.673 181.543 350.46ZM143.907 326.749V333.43L154.633 332.395C153.786 330.419 152.94 328.161 151.999 325.714C148.894 326.185 146.071 326.561 143.907 326.749ZM112.104 361.563C114.362 362.316 117.185 363.445 120.008 364.856C123.771 356.482 125.183 347.167 125.747 337.852H117.938C116.903 346.132 115.115 354.6 112.104 361.563ZM143.342 357.611H171.099C174.486 357.611 177.309 360.34 177.309 363.821V387.062C177.309 390.543 174.486 393.272 171.099 393.272H143.342C139.955 393.272 137.132 390.543 137.132 387.062V363.821C137.132 360.34 139.955 357.611 143.342 357.611ZM169.217 370.502V365.421H145.224V370.502H169.217ZM145.224 378.405V385.462H169.217V378.405H145.224Z" fill="black"/>
<path d="M255.217 350.554C279.869 357.235 274.694 391.39 249.101 389.979C243.455 389.696 239.221 387.814 236.116 384.427C234.611 382.733 234.893 380.193 236.681 378.593C238.186 377.276 240.538 377.37 242.232 378.782C250.889 385.838 264.72 379.534 263.026 369.561C260.768 356.482 245.055 353.283 227.93 362.222C228.024 368.62 227.742 375.112 227.178 381.228C226.143 389.32 220.968 391.766 212.217 388.379C202.337 384.239 195.187 378.311 208.547 366.173C212.217 362.88 215.981 360.058 219.744 357.705C219.65 352.248 219.368 346.979 218.898 341.992C213.534 342.933 208.077 343.592 202.432 343.874C200.173 343.968 198.292 342.18 198.292 339.922C198.197 337.758 199.985 335.876 202.149 335.782C207.607 335.5 212.97 334.935 217.957 333.9C217.204 328.443 216.263 323.55 215.228 319.598C214.663 317.434 215.887 315.27 218.051 314.706C220.215 314.235 222.567 315.458 223.132 317.716C224.167 321.574 225.108 326.561 225.86 332.112C228.965 331.266 231.882 330.325 234.611 329.196C236.681 328.349 239.033 329.29 239.974 331.266C240.915 333.336 239.974 335.688 237.904 336.535C234.423 337.946 230.659 339.169 226.801 340.204C227.178 344.438 227.554 348.955 227.742 353.565C237.245 349.425 246.843 348.296 255.217 350.554ZM273.376 340.581C275.258 341.898 275.54 344.532 274.223 346.414C272.906 348.202 270.459 348.484 268.672 347.167C263.873 343.78 257.757 341.71 251.171 341.145C249.007 340.957 247.313 339.075 247.407 336.911C247.595 334.653 249.571 332.865 251.829 333.053C259.921 333.618 267.637 336.347 273.376 340.581ZM211.464 379.158C219.65 383.392 218.992 383.11 219.274 379.158C219.462 376.712 219.65 371.631 219.744 367.303C216.545 369.561 213.817 371.913 211.652 374.171C208.359 377.464 209.112 378.029 211.464 379.158Z" fill="black"/>
<path d="M341.216 333.053C370.478 335.406 376.406 381.416 334.912 386.309C332.56 386.591 330.49 384.803 330.301 382.451C330.113 380.099 331.901 378.123 334.253 377.935C364.08 375.677 362.481 341.427 338.393 340.957C334.065 353.189 317.599 386.121 304.803 383.768C290.877 381.228 291.724 358.834 307.343 344.438C306.214 338.981 305.555 333.147 305.367 327.126C305.367 324.773 307.155 322.986 309.507 322.986C311.671 322.986 313.553 324.867 313.553 327.032C313.647 330.513 313.93 334.653 314.682 339.075C319.669 336.064 325.691 333.9 332.56 332.959C333.971 329.007 335.288 324.773 336.417 320.727C336.982 318.563 339.146 317.152 341.404 317.716C343.568 318.281 344.886 320.445 344.321 322.703C343.568 325.526 342.533 329.102 341.216 333.053ZM320.892 358.834C323.433 354.318 326.256 348.672 329.172 341.804C324.562 342.745 320.234 344.627 316.47 347.167C317.505 351.119 318.916 355.071 320.892 358.834ZM303.674 362.692C299.91 376.147 305.367 381.698 315.811 366.926C313.365 362.88 311.201 358.176 309.601 353.001C306.779 356.106 304.709 359.493 303.674 362.692Z" fill="black"/>
<path d="M448.292 380.005C450.55 379.346 452.808 380.663 453.279 382.922C453.749 385.368 452.338 387.814 449.985 388.379C437.001 391.672 423.734 387.156 416.865 377.182C410.373 367.867 409.714 349.896 426.368 334.841C416.207 336.064 405.292 336.252 394.189 335.312C391.931 335.217 390.238 333.147 390.426 330.795C390.708 328.537 392.778 326.843 395.036 327.032C415.454 328.631 433.708 326.655 449.233 321.01C451.397 320.257 453.749 321.292 454.69 323.362C455.537 325.526 454.502 327.972 452.338 328.819C448.762 330.137 444.999 331.266 440.953 332.207C422.699 343.686 415.172 361.375 424.204 373.136C430.697 381.604 440.764 382.075 448.292 380.005ZM464.475 345.944C465.134 347.543 464.381 349.237 462.97 349.896C461.465 350.554 459.771 349.802 459.206 348.296C457.701 344.344 455.537 341.145 452.526 338.322C451.397 337.193 451.397 335.5 452.432 334.371C453.561 333.336 455.349 333.242 456.478 334.277C460.147 337.57 462.311 340.769 464.475 345.944ZM448.95 337.946C452.338 341.051 454.784 344.627 456.854 349.425C457.513 351.025 456.666 352.812 455.16 353.471C453.655 354.13 451.961 353.377 451.397 351.777C449.891 347.826 448.009 345.003 444.999 342.274C443.775 341.239 443.587 339.357 444.716 338.228C445.751 337.005 447.727 336.817 448.95 337.946Z" fill="black"/>
<path d="M548.405 380.193C548.781 382.545 547.464 384.709 545.112 385.274C516.226 392.331 499.289 389.884 493.926 377.558C489.974 368.526 495.055 358.834 503.147 349.896L498.631 345.756C493.456 341.051 490.068 336.723 490.35 328.631C490.445 326.279 492.515 324.491 494.867 324.585C497.125 324.679 498.819 326.749 498.725 328.913C498.536 332.583 499.383 334.841 502.394 337.852C503.617 339.075 505.97 341.333 508.886 344.062C514.814 338.511 521.495 333.524 527.046 329.478C526.199 329.478 525.164 329.572 524.223 329.666C522.059 330.042 519.989 328.349 519.895 326.185C519.801 323.927 521.589 321.762 523.847 321.668C528.74 321.292 533.632 321.951 538.055 323.738C540.972 325.056 541.16 329.102 538.525 330.889C532.786 334.935 522.812 341.71 514.626 349.331C519.707 354.036 524.976 358.834 528.081 361.657C529.775 363.163 529.869 365.797 528.269 367.491C526.764 369.278 524.129 369.373 522.436 367.679L508.792 355.165C503.429 361.093 499.948 367.208 500.889 372.572C502.488 381.604 517.355 383.298 543.418 377.088C545.582 376.523 547.84 377.935 548.405 380.193Z" fill="black"/>
<path d="M624.054 325.997C617.185 321.668 610.129 320.069 601.378 320.822C599.026 320.916 597.144 319.222 597.144 316.964C597.144 314.517 599.026 312.353 601.378 312.259C611.069 311.601 621.419 314.517 628.194 318.563C630.264 319.787 630.923 322.609 629.699 324.773C628.476 326.749 625.936 327.314 624.054 325.997ZM602.978 392.331C600.719 392.989 598.367 391.578 597.708 389.226C597.238 386.968 598.555 384.615 600.813 383.957C625.748 376.618 630.452 359.681 627.535 348.767C624.807 337.852 606.835 339.075 596.109 351.307C594.509 353.095 591.875 353.283 590.181 351.683C588.299 350.178 587.923 347.261 589.523 345.285C602.319 330.607 625.936 328.819 633.934 341.992C640.05 352.248 638.168 371.631 620.479 384.145C615.68 387.626 609.752 390.355 602.978 392.331Z" fill="black"/>
<path d="M705.819 373.701C703.749 373.701 702.15 372.007 702.15 370.031L700.926 319.786C700.832 317.058 703.091 314.8 705.819 314.8C708.548 314.8 710.806 317.058 710.712 319.786L709.489 370.031C709.489 372.007 707.889 373.701 705.819 373.701ZM705.819 391.202C702.338 391.202 699.327 388.379 699.327 384.803C699.327 381.228 702.338 378.311 705.819 378.311C709.395 378.311 712.312 381.228 712.312 384.803C712.312 388.285 709.395 391.202 705.819 391.202Z" fill="black"/>
<path d="M451.375 193.674C451.375 231.409 395.426 261.952 393.043 263.214C392.415 263.551 391.713 263.728 391 263.728C390.287 263.728 389.585 263.551 388.957 263.214C386.574 261.952 330.625 231.409 330.625 193.674C330.635 184.814 334.16 176.318 340.425 170.053C346.691 163.787 355.186 160.263 364.047 160.253C375.179 160.253 384.925 165.039 391 173.131C397.075 165.039 406.822 160.253 417.953 160.253C426.814 160.263 435.309 163.787 441.575 170.053C447.841 176.318 451.365 184.814 451.375 193.674Z" fill="black"/>
</svg>
