<svg width="753" height="423" viewBox="0 0 753 423" fill="none" xmlns="http://www.w3.org/2000/svg">
<path d="M228.495 89.1577C230.094 90.7572 230.094 93.3918 228.401 94.8972C225.39 97.5318 222.379 99.6018 219.462 101.107C212.687 104.589 194.904 104.024 203.843 62.5299C204.313 60.554 205.442 56.508 195.845 60.7422C189.447 63.659 183.425 66.9522 177.591 71.5626C177.591 82.7595 178.25 94.5209 179.567 104.871C179.849 107.035 178.344 109.199 176.18 109.575C173.828 109.952 171.758 108.446 171.381 106.188C170.346 99.1313 169.688 89.534 169.594 79.184C166.394 82.7595 163.289 86.9936 160.373 91.8863C159.526 94.1445 158.679 96.4027 157.926 98.6609C157.174 100.731 155.009 101.86 152.845 101.201C150.681 100.449 149.646 98.1904 150.399 96.0263C154.539 85.2999 161.69 72.2213 169.782 60.6481V60.3658C164.419 61.4008 158.491 62.1535 153.974 62.4358C151.716 62.5299 149.834 60.7422 149.834 58.484C149.834 56.2258 151.716 54.438 153.88 54.438C158.585 54.2499 164.701 53.7794 170.158 52.5562C170.629 46.5344 171.193 40.8889 171.946 35.9962C172.322 33.8321 174.486 32.4207 176.744 32.8912C178.909 33.3616 180.32 35.5257 179.944 37.7839C179.285 41.6416 178.814 46.158 178.344 51.2389C179.379 51.1449 180.32 51.4271 181.167 52.0858C182.954 53.4971 183.143 56.0376 181.637 57.7312C180.32 59.2367 179.003 60.8362 177.779 62.3417V62.4358C185.119 57.1667 192.458 53.5912 198.197 52.1799C209.488 49.4512 214.287 54.0617 211.84 65.5408C206.195 91.6041 210.805 101.39 222.849 89.2518C224.355 87.6522 226.895 87.5581 228.495 89.1577ZM288.148 50.4862C283.82 52.6503 278.739 54.438 273.282 55.6612C268.954 68.834 262.932 83.6063 254.37 96.7791C253.146 98.755 250.512 99.2254 248.536 98.0023C246.654 96.685 246.184 94.0504 247.407 92.1686C255.122 80.219 260.392 68.3635 264.343 57.1667C260.392 57.5431 256.534 57.7312 252.77 57.5431C250.512 57.3549 248.912 55.379 249.101 53.1208C249.383 50.9567 251.265 49.263 253.523 49.3571C257.757 49.4512 262.462 49.1689 267.166 48.4162C268.577 43.8998 269.801 39.4776 270.93 35.2434C271.494 32.9853 273.658 31.668 275.917 32.3266C278.081 32.8912 279.398 35.1494 278.833 37.3135C278.081 40.1362 277.14 43.2412 276.199 46.4403C279.21 45.4994 282.032 44.3703 284.667 43.053C286.737 42.018 289.089 42.7707 290.03 44.7467C290.971 46.9108 290.124 49.4512 288.148 50.4862ZM315.717 95.1795C317.505 96.4968 317.787 99.1313 316.47 100.825C315.153 102.613 312.612 102.989 310.824 101.672C308.096 99.6018 304.238 96.8732 299.722 94.8032C299.91 99.5077 297.652 108.164 286.267 108.164C266.225 108.164 261.709 81.5363 290.218 84.359C288.242 67.3285 293.888 62.0594 299.816 59.8953C297.84 59.6131 295.77 59.519 293.794 59.6131C291.536 59.8012 289.56 58.2958 289.466 56.1317C289.277 53.7794 290.971 51.8035 293.323 51.7094C315.153 50.7685 317.034 64.2235 307.249 65.1644C297.652 66.1053 296.052 69.6808 298.687 85.6763C305.838 88.1227 311.859 92.2627 315.717 95.1795ZM279.586 98.0963C282.973 101.672 293.323 103.365 291.536 92.0745C283.162 89.2518 274.976 93.2977 279.586 98.0963ZM405.856 48.7926C400.023 48.7926 395.318 44.088 395.318 38.2544C395.318 32.5148 400.023 27.7162 405.856 27.7162C411.69 27.7162 416.395 32.5148 416.395 38.2544C416.395 44.088 411.596 48.7926 405.856 48.7926ZM405.856 43.8998C408.961 43.8998 411.502 41.4535 411.502 38.2544C411.502 35.1494 408.961 32.6089 405.856 32.6089C402.657 32.6089 400.117 35.1494 400.117 38.2544C400.117 41.4535 402.751 43.8998 405.856 43.8998ZM366.903 107.223C343.38 107.223 336.511 75.7026 356.741 53.2149C352.695 54.5321 347.896 54.8144 343.568 54.0617C341.404 53.5912 339.993 51.333 340.557 48.9808C341.028 46.9108 343.192 45.6876 345.356 46.158C354.2 48.0398 362.386 42.7707 366.809 40.7007C371.795 38.3485 377.065 44.3703 370.76 49.6394C341.028 77.5845 352.789 97.0613 363.892 98.8491C373.865 100.543 387.415 94.1445 385.345 68.2694C384.78 61.6831 384.498 47.6635 384.498 47.193C384.498 41.5476 391.649 39.7598 394.001 44.6526C397.765 52.5562 401.434 58.484 410.279 64.7881C412.161 66.1053 412.819 68.6458 411.784 70.6217C410.843 72.6917 408.303 73.3504 406.515 72.1272C400.964 68.3635 395.977 63.2826 392.966 59.1426C393.06 63.5649 393.719 71.6567 393.625 75.4204C393.06 94.615 382.522 107.223 366.903 107.223ZM492.138 96.8732C494.02 97.9082 494.867 100.26 493.926 102.33C493.079 104.212 490.727 104.965 488.939 103.836C485.552 101.766 480.377 98.755 474.919 96.8732C473.978 111.081 458.453 110.987 450.738 105.247C441.423 98.2845 446.786 84.4531 466.922 87.5581C466.451 77.5845 465.322 60.9303 464.287 52.9326C464.005 50.7685 465.416 48.6985 467.486 48.3221C469.556 47.8517 471.626 49.263 471.908 51.333C472.379 54.7203 472.849 59.4249 473.226 64.5999C478.401 63.9413 483.952 62.9062 487.528 61.8712C489.598 61.2126 491.762 62.4358 492.138 64.5058C492.703 66.6699 491.385 68.9281 489.315 69.4926C485.363 70.5276 479.248 71.6567 473.884 72.4095C474.261 78.7136 474.637 84.9236 474.825 89.3459C478.965 90.475 486.681 93.6741 492.138 96.8732ZM461.558 101.107C465.698 101.39 467.204 99.79 467.204 95.0854C460.523 93.58 454.407 94.615 454.031 97.1554C453.843 98.6609 457.889 100.919 461.558 101.107ZM598.367 75.1381C600.531 75.9849 601.754 78.5254 601.001 80.7836C594.509 99.4136 582.089 106.376 572.774 105.153C554.897 102.801 561.765 83.7945 556.214 81.4422C551.792 79.6545 545.394 85.9586 538.337 99.5077C537.866 100.825 537.396 102.236 537.019 103.554C536.267 105.718 533.914 107.035 531.75 106.376C529.492 105.812 528.175 103.46 528.928 101.201C535.514 80.6895 549.91 51.2389 558.002 36.5607C559.131 34.4907 561.765 33.738 563.741 34.8671C565.811 35.9021 566.564 38.4425 565.341 40.5126C560.354 49.263 553.956 61.9653 548.216 74.9499C554.991 70.4335 560.825 72.1272 564.118 76.9258C568.916 83.9827 564.306 94.8032 572.868 96.2145C580.866 97.5318 588.017 90.9454 592.91 77.6786C593.756 75.4204 596.109 74.2913 598.367 75.1381Z" fill="black"/>
<path d="M228.401 94.8972L228.598 95.123L228.6 95.1215L228.401 94.8972ZM219.462 101.107L219.599 101.374L219.599 101.374L219.462 101.107ZM203.843 62.5299L203.551 62.4604L203.549 62.4667L203.843 62.5299ZM195.845 60.7422L195.724 60.4677L195.721 60.4692L195.845 60.7422ZM177.591 71.5626L177.405 71.3273L177.291 71.4174V71.5626H177.591ZM179.567 104.871L179.27 104.909L179.27 104.91L179.567 104.871ZM176.18 109.575L176.227 109.872L176.231 109.871L176.18 109.575ZM171.381 106.188L171.084 106.232L171.085 106.238L171.381 106.188ZM169.594 79.184L169.894 79.1813L169.886 78.4067L169.37 78.984L169.594 79.184ZM160.373 91.8863L160.115 91.7327L160.101 91.7558L160.092 91.781L160.373 91.8863ZM157.926 98.6609L158.208 98.7634L158.211 98.7558L157.926 98.6609ZM152.845 101.201L152.747 101.485L152.758 101.488L152.845 101.201ZM150.399 96.0263L150.119 95.9183L150.116 95.9278L150.399 96.0263ZM169.782 60.6481L170.028 60.82L170.082 60.7425V60.6481H169.782ZM169.782 60.3658H170.082V60.0024L169.725 60.0712L169.782 60.3658ZM153.974 62.4358L153.987 62.7356L153.993 62.7352L153.974 62.4358ZM153.88 54.438V54.7383L153.892 54.7378L153.88 54.438ZM170.158 52.5562L170.224 52.849L170.44 52.8005L170.457 52.5796L170.158 52.5562ZM171.946 35.9962L171.65 35.9448L171.649 35.9506L171.946 35.9962ZM176.744 32.8912L176.808 32.598L176.806 32.5975L176.744 32.8912ZM179.944 37.7839L180.239 37.8344L180.239 37.8332L179.944 37.7839ZM178.344 51.2389L178.045 51.2113L178.012 51.5704L178.371 51.5377L178.344 51.2389ZM181.167 52.0858L181.353 51.8503L181.351 51.849L181.167 52.0858ZM181.637 57.7312L181.413 57.5319L181.411 57.5337L181.637 57.7312ZM177.779 62.3417L177.547 62.1525L177.479 62.2352V62.3417H177.779ZM177.779 62.4358H177.479V63.0205L177.954 62.6795L177.779 62.4358ZM198.197 52.1799L198.127 51.8882L198.126 51.8885L198.197 52.1799ZM211.84 65.5408L212.134 65.6043L212.134 65.6033L211.84 65.5408ZM222.849 89.2518L223.062 89.4632L223.068 89.4574L222.849 89.2518ZM228.282 89.3698C229.768 90.8549 229.758 93.2892 228.201 94.673L228.6 95.1215C230.43 93.4944 230.421 90.6596 228.707 88.9456L228.282 89.3698ZM228.203 94.6715C225.208 97.2923 222.217 99.3478 219.324 100.841L219.599 101.374C222.541 99.8558 225.572 97.7713 228.598 95.123L228.203 94.6715ZM219.325 100.84C216.008 102.545 210.039 103.237 205.988 98.4897C201.912 93.7131 199.669 83.3289 204.136 62.5931L203.549 62.4667C199.078 83.2251 201.257 93.8702 205.532 98.8792C209.831 103.917 216.141 103.151 219.599 101.374L219.325 100.84ZM204.135 62.5994C204.25 62.1157 204.418 61.4598 204.441 60.8327C204.464 60.2078 204.348 59.5322 203.813 59.0786C203.285 58.6296 202.432 58.4709 201.165 58.6607C199.89 58.8517 198.133 59.4048 195.724 60.4677L195.966 61.0166C198.355 59.9625 200.056 59.4335 201.254 59.254C202.461 59.0733 203.095 59.2557 203.425 59.5359C203.75 59.8115 203.862 60.2533 203.841 60.8104C203.821 61.3653 203.671 61.9561 203.551 62.4604L204.135 62.5994ZM195.721 60.4692C189.309 63.3921 183.264 66.6969 177.405 71.3273L177.777 71.798C183.586 67.2074 189.585 63.9259 195.969 61.0151L195.721 60.4692ZM177.291 71.5626C177.291 82.7701 177.95 94.5443 179.27 104.909L179.865 104.833C178.549 94.4974 177.891 82.7489 177.891 71.5626H177.291ZM179.27 104.91C179.532 106.923 178.126 108.933 176.129 109.28L176.231 109.871C178.562 109.466 180.167 107.147 179.865 104.832L179.27 104.91ZM176.133 109.279C173.941 109.63 172.026 108.232 171.677 106.139L171.085 106.238C171.489 108.661 173.715 110.274 176.227 109.872L176.133 109.279ZM171.678 106.145C170.646 99.1052 169.988 89.5222 169.894 79.1813L169.294 79.1867C169.388 89.5458 170.047 99.1575 171.084 106.232L171.678 106.145ZM169.37 78.984C166.157 82.5751 163.041 86.8251 160.115 91.7327L160.63 92.0399C163.538 87.1621 166.632 82.9438 169.817 79.3841L169.37 78.984ZM160.092 91.781C159.245 94.0383 158.396 96.3017 157.642 98.566L158.211 98.7558C158.962 96.5037 159.806 94.2508 160.654 91.9917L160.092 91.781ZM157.644 98.5584C156.945 100.481 154.941 101.526 152.933 100.914L152.758 101.488C155.078 102.194 157.402 100.98 158.208 98.7634L157.644 98.5584ZM152.944 100.918C150.943 100.222 149.982 98.1393 150.682 96.1249L150.116 95.9278C149.311 98.2416 150.419 100.675 152.747 101.485L152.944 100.918ZM150.679 96.1344C154.809 85.4347 161.947 72.3774 170.028 60.82L169.536 60.4762C161.433 72.0652 154.269 85.1651 150.119 95.9183L150.679 96.1344ZM170.082 60.6481V60.3658H169.482V60.6481H170.082ZM169.725 60.0712C164.373 61.104 158.458 61.855 153.956 62.1364L153.993 62.7352C158.523 62.4521 164.464 61.6976 169.839 60.6604L169.725 60.0712ZM153.962 62.1361C151.872 62.2231 150.134 60.5697 150.134 58.484H149.534C149.534 60.9146 151.56 62.8366 153.987 62.7355L153.962 62.1361ZM150.134 58.484C150.134 56.396 151.877 54.738 153.88 54.738V54.138C151.555 54.138 149.534 56.0556 149.534 58.484H150.134ZM153.892 54.7378C158.603 54.5494 164.74 54.078 170.224 52.849L170.092 52.2635C164.661 53.4808 158.567 53.9504 153.868 54.1383L153.892 54.7378ZM170.457 52.5796C170.927 46.5608 171.491 40.9238 172.242 36.0418L171.649 35.9506C170.895 40.854 170.33 46.508 169.859 52.5329L170.457 52.5796ZM172.241 36.0476C172.587 34.0624 174.579 32.7465 176.683 33.1849L176.806 32.5975C174.394 32.0949 172.058 33.6017 171.65 35.9448L172.241 36.0476ZM176.681 33.1843C178.679 33.6188 179.999 35.6248 179.648 37.7346L180.239 37.8332C180.641 35.4266 179.138 33.1044 176.808 32.598L176.681 33.1843ZM179.648 37.7334C178.987 41.6037 178.516 46.1304 178.045 51.2113L178.643 51.2666C179.113 46.1856 179.583 41.6796 180.239 37.8344L179.648 37.7334ZM178.371 51.5377C179.328 51.4508 180.194 51.709 180.983 52.3226L181.351 51.849C180.446 51.1453 179.43 50.839 178.317 50.9402L178.371 51.5377ZM180.981 52.3212C182.63 53.6229 182.807 55.9639 181.413 57.5319L181.861 57.9305C183.479 56.1113 183.279 53.3713 181.353 51.8503L180.981 52.3212ZM181.411 57.5337C180.09 59.0434 178.77 60.6463 177.547 62.1525L178.012 62.5309C179.235 61.0262 180.549 59.43 181.863 57.9288L181.411 57.5337ZM177.479 62.3417V62.4358H178.079V62.3417H177.479ZM177.954 62.6795C185.273 57.4249 192.578 53.8707 198.269 52.4712L198.126 51.8885C192.338 53.3118 184.964 56.9085 177.605 62.1921L177.954 62.6795ZM198.268 52.4715C203.891 51.1126 207.773 51.615 209.961 53.7473C212.149 55.8797 212.765 59.7612 211.547 65.4783L212.134 65.6033C213.362 59.8413 212.802 55.678 210.38 53.3176C207.957 50.957 203.795 50.5185 198.127 51.8883L198.268 52.4715ZM211.547 65.4773C210.134 72.0036 209.36 77.5202 209.185 81.9361C209.011 86.3424 209.432 89.6885 210.439 91.8484C210.945 92.9331 211.608 93.7371 212.435 94.2153C213.266 94.6958 214.232 94.8296 215.31 94.6276C217.441 94.2276 220.042 92.5064 223.062 89.4631L222.636 89.0405C219.634 92.066 217.142 93.6733 215.199 94.0378C214.238 94.218 213.422 94.0931 212.735 93.6959C212.044 93.2964 211.454 92.6037 210.983 91.5949C210.038 89.5677 209.612 86.3393 209.785 81.9598C209.958 77.5899 210.725 72.1097 212.134 65.6043L211.547 65.4773ZM223.068 89.4574C224.46 87.9778 226.806 87.8931 228.282 89.3698L228.707 88.9456C226.984 87.2232 224.249 87.3267 222.631 89.0462L223.068 89.4574ZM288.148 50.4862L288.283 50.7546L288.288 50.752L288.148 50.4862ZM273.282 55.6612L273.216 55.3685L273.05 55.4057L272.997 55.5676L273.282 55.6612ZM254.37 96.7791L254.118 96.6155L254.115 96.6212L254.37 96.7791ZM248.536 98.0023L248.364 98.248L248.371 98.2529L248.378 98.2573L248.536 98.0023ZM247.407 92.1686L247.658 92.3321L247.659 92.3313L247.407 92.1686ZM264.343 57.1667L264.626 57.2665L264.783 56.8235L264.315 56.868L264.343 57.1667ZM252.77 57.5431L252.745 57.8422L252.755 57.8427L252.77 57.5431ZM249.101 53.1208L248.803 53.0819L248.802 53.0959L249.101 53.1208ZM253.523 49.3571L253.51 49.6569L253.516 49.657L253.523 49.3571ZM267.166 48.4162L267.213 48.7124L267.397 48.6831L267.452 48.5057L267.166 48.4162ZM270.93 35.2434L271.22 35.3208L271.221 35.3162L270.93 35.2434ZM275.917 32.3266L275.833 32.6147L275.841 32.6169L275.917 32.3266ZM278.833 37.3135L279.123 37.3908L279.124 37.3892L278.833 37.3135ZM276.199 46.4403L275.911 46.3556L275.753 46.894L276.288 46.7266L276.199 46.4403ZM284.667 43.053L284.801 43.3213L284.801 43.3213L284.667 43.053ZM290.03 44.7467L290.306 44.627L290.301 44.6177L290.03 44.7467ZM315.717 95.1795L315.536 95.4188L315.539 95.421L315.717 95.1795ZM316.47 100.825L316.233 100.641L316.228 100.647L316.47 100.825ZM310.824 101.672L310.643 101.911L310.646 101.913L310.824 101.672ZM299.722 94.8032L299.847 94.5304L299.402 94.3268L299.422 94.8151L299.722 94.8032ZM290.218 84.359L290.189 84.6576L290.559 84.6943L290.516 84.3245L290.218 84.359ZM299.816 59.8953L299.919 60.1771L299.858 59.5983L299.816 59.8953ZM293.794 59.6131L293.78 59.3132L293.769 59.3141L293.794 59.6131ZM289.466 56.1317L289.766 56.1186L289.765 56.1078L289.466 56.1317ZM293.323 51.7094L293.335 52.0092L293.336 52.0091L293.323 51.7094ZM307.249 65.1644L307.22 64.8658L307.22 64.8659L307.249 65.1644ZM298.687 85.6763L298.391 85.7251L298.42 85.9021L298.59 85.9602L298.687 85.6763ZM279.586 98.0963L279.804 97.89L279.802 97.8885L279.586 98.0963ZM291.536 92.0745L291.832 92.0276L291.804 91.8482L291.632 91.7902L291.536 92.0745ZM288.014 50.2179C283.71 52.37 278.652 54.1501 273.216 55.3685L273.348 55.954C278.826 54.726 283.93 52.9306 288.283 50.7545L288.014 50.2179ZM272.997 55.5676C268.673 68.7273 262.661 83.4728 254.118 96.6156L254.621 96.9426C263.203 83.7398 269.235 68.9407 273.567 55.7549L272.997 55.5676ZM254.115 96.6212C252.988 98.4403 250.545 98.8933 248.694 97.7472L248.378 98.2573C250.478 99.5575 253.305 99.0697 254.625 96.937L254.115 96.6212ZM248.708 97.7565C246.961 96.5336 246.522 94.0808 247.658 92.3321L247.155 92.0051C245.846 94.0201 246.347 96.8364 248.364 98.248L248.708 97.7565ZM247.659 92.3313C255.39 80.3577 260.669 68.4799 264.626 57.2665L264.06 57.0668C260.114 68.2471 254.855 80.0804 247.155 92.0059L247.659 92.3313ZM264.315 56.868C260.371 57.2436 256.529 57.4306 252.785 57.2434L252.755 57.8427C256.538 58.0318 260.412 57.8425 264.372 57.4653L264.315 56.868ZM252.795 57.2441C250.709 57.0703 249.224 55.2463 249.4 53.1457L248.802 53.0959C248.6 55.5116 250.314 57.6395 252.745 57.842L252.795 57.2441ZM249.398 53.1596C249.661 51.1422 251.415 49.5695 253.51 49.6569L253.535 49.0574C251.114 48.9565 249.105 50.7712 248.803 53.082L249.398 53.1596ZM253.516 49.657C257.768 49.7515 262.49 49.4681 267.213 48.7124L267.119 48.12C262.433 48.8697 257.746 49.1509 253.53 49.0572L253.516 49.657ZM267.452 48.5057C268.866 43.9834 270.09 39.5565 271.22 35.3207L270.64 35.1661C269.511 39.3986 268.289 43.8162 266.88 48.3267L267.452 48.5057ZM271.221 35.3162C271.746 33.2155 273.745 32.0058 275.833 32.6146L276.001 32.0386C273.571 31.3301 271.243 32.755 270.639 35.1707L271.221 35.3162ZM275.841 32.6169C277.844 33.1394 279.066 35.2332 278.543 37.2377L279.124 37.3892C279.73 35.0655 278.317 32.6429 275.992 32.0363L275.841 32.6169ZM278.544 37.2362C277.792 40.054 276.853 43.1529 275.911 46.3556L276.487 46.5249C277.426 43.3295 278.369 40.2184 279.123 37.3908L278.544 37.2362ZM276.288 46.7266C279.314 45.7813 282.151 44.6463 284.801 43.3213L284.533 42.7847C281.914 44.0943 279.106 45.2175 276.109 46.154L276.288 46.7266ZM284.801 43.3213C286.734 42.3552 288.897 43.0637 289.759 44.8756L290.301 44.6177C289.282 42.4777 286.741 41.6809 284.533 42.7847L284.801 43.3213ZM289.755 44.8663C290.638 46.8967 289.836 49.2636 288.009 50.2205L288.288 50.752C290.413 49.6388 291.304 46.9249 290.305 44.627L289.755 44.8663ZM315.539 95.421C317.185 96.6338 317.451 99.0744 316.233 100.641L316.707 101.009C318.123 99.1883 317.825 96.3598 315.895 94.938L315.539 95.421ZM316.228 100.647C315.01 102.3 312.658 102.65 311.002 101.43L310.646 101.913C312.567 103.328 315.295 102.925 316.711 101.003L316.228 100.647ZM311.006 101.433C308.271 99.3581 304.393 96.614 299.847 94.5304L299.597 95.0759C304.083 97.1323 307.921 99.8455 310.643 101.911L311.006 101.433ZM299.422 94.8151C299.514 97.1227 299.004 100.391 297.09 103.074C295.187 105.739 291.872 107.864 286.267 107.864V108.464C292.047 108.464 295.553 106.261 297.578 103.422C299.592 100.6 300.117 97.1882 300.021 94.7912L299.422 94.8151ZM286.267 107.864C276.376 107.864 270.404 101.307 270.336 95.1997C270.302 92.153 271.73 89.1849 274.917 87.1402C278.114 85.0897 283.102 83.9559 290.189 84.6576L290.248 84.0605C283.08 83.3508 277.942 84.487 274.593 86.6352C271.235 88.7894 269.699 91.949 269.736 95.2064C269.809 101.708 276.116 108.464 286.267 108.464V107.864ZM290.516 84.3245C289.532 75.8398 290.452 70.3323 292.32 66.6891C294.182 63.0575 297.005 61.241 299.919 60.1771L299.713 59.6135C296.699 60.7138 293.735 62.6139 291.786 66.4154C289.843 70.2055 288.929 75.8477 289.92 84.3936L290.516 84.3245ZM299.858 59.5983C297.863 59.3134 295.774 59.2184 293.78 59.3134L293.808 59.9127C295.765 59.8195 297.816 59.9128 299.773 60.1923L299.858 59.5983ZM293.769 59.3141C291.649 59.4907 289.851 58.0829 289.765 56.1187L289.166 56.1447C289.269 58.5087 291.422 60.1118 293.819 59.912L293.769 59.3141ZM289.765 56.1078C289.59 53.919 291.16 52.0962 293.335 52.0092L293.311 51.4096C290.783 51.5108 288.965 53.6398 289.167 56.1556L289.765 56.1078ZM293.336 52.0091C304.215 51.5402 309.993 54.666 311.883 57.8832C312.822 59.4824 312.808 61.1026 312.016 62.3743C311.22 63.6531 309.601 64.6369 307.22 64.8658L307.278 65.4631C309.789 65.2215 311.605 64.1706 312.526 62.6914C313.451 61.205 313.437 59.3438 312.4 57.5793C310.338 54.069 304.261 50.9377 293.311 51.4097L293.336 52.0091ZM307.22 64.8659C302.405 65.3378 299.445 66.4816 298.104 69.6583C297.445 71.221 297.192 73.2465 297.264 75.8637C297.335 78.4836 297.731 81.7221 298.391 85.7251L298.983 85.6276C298.325 81.6327 297.933 78.4261 297.863 75.8474C297.793 73.2661 298.046 71.3397 298.657 69.8915C299.858 67.0464 302.495 65.9319 307.278 65.463L307.22 64.8659ZM298.59 85.9602C305.695 88.3911 311.687 92.5084 315.536 95.4188L315.898 94.9402C312.032 92.017 305.98 87.8543 298.784 85.3925L298.59 85.9602ZM279.368 98.3027C280.255 99.239 281.582 100.038 283.037 100.535C284.491 101.033 286.101 101.238 287.559 100.955C289.024 100.67 290.339 99.8908 291.161 98.4286C291.977 96.9755 292.285 94.8885 291.832 92.0276L291.239 92.1214C291.68 94.906 291.365 96.8414 290.638 98.1346C289.916 99.4187 288.766 100.109 287.444 100.366C286.115 100.624 284.613 100.441 283.231 99.9678C281.847 99.4947 280.611 98.7415 279.804 97.89L279.368 98.3027ZM291.632 91.7902C287.385 90.3589 283.16 90.6577 280.558 91.9591C279.258 92.609 278.319 93.5333 278.039 94.662C277.756 95.8051 278.173 97.0588 279.37 98.3042L279.802 97.8885C278.694 96.7346 278.405 95.683 278.622 94.8061C278.842 93.9147 279.609 93.1042 280.826 92.4957C283.257 91.2801 287.312 90.9674 291.44 92.3588L291.632 91.7902ZM356.741 53.2149L356.964 53.4155L357.713 52.5829L356.648 52.9296L356.741 53.2149ZM343.568 54.0617L343.504 54.3551L343.517 54.3572L343.568 54.0617ZM340.557 48.9808L340.849 49.0508L340.85 49.0472L340.557 48.9808ZM345.356 46.158L345.292 46.4512L345.293 46.4515L345.356 46.158ZM366.809 40.7007L366.936 40.9724L366.937 40.9721L366.809 40.7007ZM370.76 49.6394L370.568 49.4092L370.561 49.4148L370.555 49.4208L370.76 49.6394ZM363.892 98.8491L363.942 98.5533L363.939 98.5529L363.892 98.8491ZM385.345 68.2694L385.644 68.2455L385.643 68.2438L385.345 68.2694ZM394.001 44.6526L394.272 44.5236L394.271 44.5226L394.001 44.6526ZM410.279 64.7881L410.105 65.0324L410.107 65.0338L410.279 64.7881ZM411.784 70.6217L411.518 70.4825L411.515 70.4899L411.511 70.4976L411.784 70.6217ZM406.515 72.1272L406.684 71.8796L406.683 71.8789L406.515 72.1272ZM392.966 59.1426L393.209 58.9662L392.646 58.1921L392.666 59.149L392.966 59.1426ZM393.625 75.4204L393.924 75.4292L393.925 75.4279L393.625 75.4204ZM405.856 48.4926C400.188 48.4926 395.618 43.9223 395.618 38.2544H395.018C395.018 44.2537 399.857 49.0926 405.856 49.0926V48.4926ZM395.618 38.2544C395.618 32.6787 400.19 28.0162 405.856 28.0162V27.4162C399.855 27.4162 395.018 32.3509 395.018 38.2544H395.618ZM405.856 28.0162C411.523 28.0162 416.095 32.6787 416.095 38.2544H416.695C416.695 32.3509 411.858 27.4162 405.856 27.4162V28.0162ZM416.095 38.2544C416.095 43.9206 411.432 48.4926 405.856 48.4926V49.0926C411.76 49.0926 416.695 44.2554 416.695 38.2544H416.095ZM405.856 44.1998C409.124 44.1998 411.802 41.6224 411.802 38.2544H411.202C411.202 41.2845 408.799 43.5998 405.856 43.5998V44.1998ZM411.802 38.2544C411.802 34.9837 409.127 32.3089 405.856 32.3089V32.9089C408.796 32.9089 411.202 35.315 411.202 38.2544H411.802ZM405.856 32.3089C402.495 32.3089 399.817 34.9804 399.817 38.2544H400.417C400.417 35.3183 402.82 32.9089 405.856 32.9089V32.3089ZM399.817 38.2544C399.817 41.6288 402.596 44.1998 405.856 44.1998V43.5998C402.907 43.5998 400.417 41.2782 400.417 38.2544H399.817ZM366.903 106.923C355.31 106.923 347.815 99.1707 345.709 88.5934C343.601 78.005 346.905 64.5969 356.964 53.4155L356.518 53.0142C346.347 64.3206 342.971 77.9167 345.12 88.7105C347.272 99.5154 354.973 107.523 366.903 107.523V106.923ZM356.648 52.9296C352.652 54.2307 347.903 54.5111 343.619 53.7661L343.517 54.3572C347.89 55.1177 352.738 54.8336 356.834 53.5001L356.648 52.9296ZM343.632 53.7685C341.642 53.336 340.321 51.2497 340.849 49.0508L340.265 48.9107C339.664 51.4163 341.166 53.8464 343.504 54.3548L343.632 53.7685ZM340.85 49.0472C341.279 47.1594 343.266 46.0108 345.292 46.4512L345.42 45.8649C343.117 45.3644 340.776 46.6621 340.265 48.9143L340.85 49.0472ZM345.293 46.4515C349.791 47.4084 354.109 46.5445 357.843 45.1934C361.563 43.8471 364.759 41.9916 366.936 40.9724L366.681 40.429C364.436 41.4799 361.328 43.2939 357.638 44.6292C353.962 45.9597 349.765 46.7894 345.418 45.8646L345.293 46.4515ZM366.937 40.9721C369.296 39.8592 371.693 40.7332 372.763 42.4695C373.297 43.3358 373.508 44.4262 373.213 45.6168C372.917 46.8099 372.107 48.1225 370.568 49.4092L370.953 49.8696C372.565 48.5217 373.462 47.1057 373.795 45.7612C374.129 44.4143 373.893 43.1583 373.274 42.1546C372.039 40.1508 369.308 39.19 366.681 40.4294L366.937 40.9721ZM370.555 49.4208C355.656 63.4243 351.093 75.3618 351.714 84.0746C352.334 92.7877 358.144 98.2275 363.844 99.1453L363.939 98.5529C358.537 97.6829 352.915 92.4904 352.312 84.0319C351.709 75.5731 356.132 63.7996 370.966 49.858L370.555 49.4208ZM363.842 99.1448C368.909 100.005 374.896 98.8114 379.352 94.1038C383.807 89.3977 386.683 81.2319 385.644 68.2455L385.046 68.2934C386.077 81.182 383.213 89.1529 378.917 93.6913C374.622 98.2281 368.849 99.3865 363.942 98.5533L363.842 99.1448ZM385.643 68.2438C385.08 61.6697 384.798 47.6597 384.798 47.193H384.198C384.198 47.6673 384.48 61.6965 385.046 68.2951L385.643 68.2438ZM384.798 47.193C384.798 44.5149 386.485 42.77 388.443 42.2613C390.399 41.7528 392.622 42.4777 393.731 44.7826L394.271 44.5226C393.027 41.9347 390.499 41.107 388.292 41.6806C386.086 42.254 384.198 44.2257 384.198 47.193H384.798ZM393.73 44.7815C397.507 52.7131 401.205 58.6889 410.105 65.0324L410.453 64.5438C401.664 58.2791 398.022 52.3993 394.272 44.5236L393.73 44.7815ZM410.107 65.0338C411.871 66.269 412.48 68.6468 411.518 70.4825L412.05 70.7609C413.158 68.6448 412.45 65.9417 410.451 64.5423L410.107 65.0338ZM411.511 70.4976C410.648 72.3969 408.319 72.9981 406.684 71.8796L406.346 72.3748C408.286 73.7026 411.039 72.9865 412.057 70.7459L411.511 70.4976ZM406.683 71.8789C401.162 68.1355 396.2 63.0793 393.209 58.9662L392.723 59.3191C395.754 63.4859 400.765 68.5915 406.347 72.3755L406.683 71.8789ZM392.666 59.149C392.713 61.3666 392.902 64.5027 393.066 67.5447C393.231 70.5944 393.371 73.5454 393.325 75.4129L393.925 75.4279C393.972 73.5317 393.83 70.5549 393.665 67.5123C393.501 64.4618 393.313 61.3409 393.266 59.1362L392.666 59.149ZM393.325 75.4116C393.044 84.9583 390.284 92.8389 385.679 98.3269C381.079 103.81 374.624 106.923 366.903 106.923V107.523C374.8 107.523 381.424 104.333 386.139 98.7126C390.85 93.0979 393.641 85.077 393.924 75.4292L393.325 75.4116ZM492.138 96.8732L491.986 97.1321L491.993 97.136L492.138 96.8732ZM493.926 102.33L493.653 102.206L493.652 102.207L493.926 102.33ZM488.939 103.836L489.099 103.582L489.095 103.58L488.939 103.836ZM474.919 96.8732L475.017 96.5895L474.646 96.4615L474.62 96.8533L474.919 96.8732ZM450.738 105.247L450.558 105.488L450.559 105.488L450.738 105.247ZM466.922 87.5581L466.876 87.8546L467.239 87.9106L467.221 87.544L466.922 87.5581ZM464.287 52.9326L464.585 52.8941L464.585 52.8938L464.287 52.9326ZM467.486 48.3221L467.54 48.6176L467.553 48.6147L467.486 48.3221ZM471.908 51.333L471.611 51.3736L471.611 51.3743L471.908 51.333ZM473.226 64.5999L472.927 64.6216L472.949 64.9375L473.264 64.8975L473.226 64.5999ZM487.528 61.8712L487.611 62.1595L487.619 62.1571L487.528 61.8712ZM492.138 64.5058L491.843 64.5595L491.845 64.5706L491.848 64.5815L492.138 64.5058ZM489.315 69.4926L489.391 69.7829L489.394 69.7821L489.315 69.4926ZM473.884 72.4095L473.843 72.1124L473.568 72.1509L473.585 72.4273L473.884 72.4095ZM474.825 89.3459L474.526 89.3586L474.535 89.5776L474.746 89.6353L474.825 89.3459ZM461.558 101.107L461.579 100.808L461.574 100.808L461.558 101.107ZM467.204 95.0854H467.504V94.8455L467.27 94.7928L467.204 95.0854ZM454.031 97.1554L453.734 97.1115L453.733 97.1182L454.031 97.1554ZM491.993 97.136C493.74 98.0967 494.528 100.281 493.653 102.206L494.199 102.455C495.206 100.239 494.3 97.7196 492.283 96.6103L491.993 97.136ZM493.652 102.207C492.879 103.926 490.729 104.612 489.099 103.582L488.779 104.09C490.724 105.318 493.279 104.498 494.199 102.454L493.652 102.207ZM489.095 103.58C485.705 101.508 480.507 98.4826 475.017 96.5895L474.822 97.1568C480.246 99.0273 485.398 102.024 488.783 104.092L489.095 103.58ZM474.62 96.8533C474.389 100.349 473.263 102.94 471.606 104.782C469.948 106.626 467.739 107.74 465.308 108.247C460.433 109.263 454.71 107.828 450.917 105.007L450.559 105.488C454.481 108.406 460.378 109.888 465.43 108.834C467.962 108.306 470.294 107.139 472.052 105.183C473.812 103.226 474.98 100.501 475.219 96.893L474.62 96.8533ZM450.918 105.007C446.365 101.604 445.447 96.5804 448.033 92.7966C450.634 88.9923 456.864 86.3108 466.876 87.8546L466.967 87.2616C456.843 85.7005 450.324 88.3822 447.538 92.458C444.738 96.5543 445.796 101.928 450.558 105.488L450.918 105.007ZM467.221 87.544C466.751 77.5691 465.621 60.9047 464.585 52.8941L463.99 52.9711C465.023 60.956 466.152 77.5998 466.622 87.5723L467.221 87.544ZM464.585 52.8938C464.321 50.8735 465.641 48.9625 467.54 48.6173L467.432 48.027C465.191 48.4345 463.689 50.6635 463.99 52.9714L464.585 52.8938ZM467.553 48.6147C469.456 48.1822 471.353 49.4827 471.611 51.3736L472.206 51.2925C471.899 49.0434 469.657 47.5211 467.42 48.0296L467.553 48.6147ZM471.611 51.3743C472.081 54.7529 472.55 59.4505 472.927 64.6216L473.525 64.5781C473.148 59.3993 472.677 54.6877 472.206 51.2918L471.611 51.3743ZM473.264 64.8975C478.447 64.2378 484.015 63.2004 487.611 62.1594L487.444 61.5831C483.889 62.6121 478.355 63.6447 473.188 64.3023L473.264 64.8975ZM487.619 62.1571C489.53 61.5489 491.501 62.6815 491.843 64.5595L492.433 64.4521C492.022 62.1901 489.665 60.8763 487.437 61.5854L487.619 62.1571ZM491.848 64.5815C492.372 66.5896 491.145 68.6827 489.236 69.2032L489.394 69.7821C491.626 69.1734 493.034 66.7502 492.428 64.4301L491.848 64.5815ZM489.239 69.2024C485.303 70.2334 479.2 71.3605 473.843 72.1124L473.926 72.7065C479.295 71.9529 485.424 70.8219 489.391 69.7828L489.239 69.2024ZM473.585 72.4273C473.961 78.7328 474.338 84.9396 474.526 89.3586L475.125 89.3331C474.937 84.9076 474.56 78.6943 474.184 72.3916L473.585 72.4273ZM474.746 89.6353C478.858 90.7567 486.549 93.9448 491.986 97.132L492.29 96.6143C486.812 93.4033 479.072 90.1932 474.904 89.0564L474.746 89.6353ZM461.538 101.407C463.635 101.55 465.164 101.225 466.152 100.172C467.13 99.13 467.504 97.4507 467.504 95.0854H466.904C466.904 97.4247 466.525 98.8974 465.715 99.7611C464.916 100.613 463.622 100.947 461.579 100.808L461.538 101.407ZM467.27 94.7928C463.9 94.0333 460.662 93.9117 458.206 94.307C456.979 94.5045 455.931 94.8336 455.156 95.2901C454.383 95.7459 453.847 96.3526 453.734 97.1115L454.328 97.1994C454.404 96.688 454.773 96.2127 455.461 95.807C456.148 95.402 457.117 95.0901 458.301 94.8994C460.667 94.5185 463.827 94.632 467.138 95.3781L467.27 94.7928ZM453.733 97.1182C453.669 97.6336 453.968 98.145 454.396 98.5895C454.835 99.0458 455.466 99.4925 456.206 99.8897C457.687 100.684 459.659 101.31 461.543 101.407L461.574 100.808C459.789 100.716 457.903 100.119 456.49 99.361C455.783 98.9819 455.209 98.57 454.828 98.1736C454.435 97.7655 454.299 97.43 454.329 97.1926L453.733 97.1182ZM598.367 75.1381L598.476 74.8587L598.472 74.8572L598.367 75.1381ZM601.001 80.7836L601.285 80.8823L601.286 80.8784L601.001 80.7836ZM572.774 105.153L572.735 105.451L572.735 105.451L572.774 105.153ZM556.214 81.4422L556.331 81.1659L556.327 81.1641L556.214 81.4422ZM538.337 99.5077L538.071 99.3691L538.061 99.3874L538.054 99.4068L538.337 99.5077ZM537.019 103.554L537.303 103.652L537.306 103.644L537.308 103.636L537.019 103.554ZM531.75 106.376L531.838 106.089L531.83 106.087L531.823 106.085L531.75 106.376ZM528.928 101.201L529.212 101.296L529.213 101.293L528.928 101.201ZM558.002 36.5607L558.265 36.7056L558.265 36.7044L558.002 36.5607ZM563.741 34.8671L563.593 35.1276L563.6 35.1317L563.607 35.1354L563.741 34.8671ZM565.341 40.5126L565.083 40.3599L565.08 40.364L565.341 40.5126ZM548.216 74.9499L547.942 74.8286L547.525 75.7711L548.383 75.1995L548.216 74.9499ZM564.118 76.9258L564.366 76.7571L564.365 76.7561L564.118 76.9258ZM572.868 96.2145L572.819 96.5105L572.819 96.5105L572.868 96.2145ZM592.91 77.6786L592.629 77.5732L592.628 77.5748L592.91 77.6786ZM598.258 75.4175C600.274 76.2066 601.419 78.5833 600.717 80.6887L601.286 80.8784C602.09 78.4675 600.788 75.7633 598.476 74.8587L598.258 75.4175ZM600.718 80.6848C594.254 99.2346 581.937 106.054 572.813 104.856L572.735 105.451C582.241 106.699 594.764 99.5927 601.285 80.8823L600.718 80.6848ZM572.813 104.856C568.402 104.275 565.549 102.674 563.647 100.585C561.74 98.49 560.765 95.8776 560.164 93.2313C559.864 91.9088 559.659 90.5838 559.477 89.3152C559.295 88.0511 559.134 86.8356 558.924 85.7516C558.714 84.6686 558.451 83.6915 558.054 82.9047C557.654 82.1132 557.109 81.4958 556.331 81.166L556.097 81.7184C556.707 81.9767 557.161 82.4678 557.518 83.1751C557.878 83.8872 558.129 84.7993 558.335 85.8656C558.541 86.9311 558.699 88.1251 558.883 89.4008C559.066 90.6719 559.274 92.0168 559.579 93.3641C560.19 96.0574 561.197 98.7847 563.203 100.989C565.215 103.199 568.207 104.855 572.735 105.451L572.813 104.856ZM556.327 81.1641C553.931 80.1958 551.097 81.4541 548.051 84.5119C544.985 87.5895 541.605 92.5836 538.071 99.3691L538.603 99.6463C542.126 92.8827 545.473 87.9502 548.476 84.9354C551.499 81.9008 554.075 80.9009 556.102 81.7203L556.327 81.1641ZM538.054 99.4068C537.582 100.728 537.11 102.146 536.731 103.471L537.308 103.636C537.682 102.327 538.15 100.922 538.619 99.6086L538.054 99.4068ZM536.736 103.455C536.031 105.482 533.833 106.697 531.838 106.089L531.663 106.663C533.996 107.373 536.502 105.954 537.303 103.652L536.736 103.455ZM531.823 106.085C529.734 105.563 528.515 103.388 529.212 101.296L528.643 101.106C527.835 103.531 529.25 106.061 531.678 106.667L531.823 106.085ZM529.213 101.293C535.791 80.8081 550.176 51.377 558.265 36.7056L557.739 36.4159C549.644 51.1009 535.237 80.5709 528.642 101.11L529.213 101.293ZM558.265 36.7044C559.316 34.7778 561.766 34.0841 563.593 35.1276L563.89 34.6066C561.764 33.3919 558.946 34.2036 557.738 36.4171L558.265 36.7044ZM563.607 35.1354C565.518 36.0908 566.219 38.4362 565.083 40.3599L565.599 40.6652C566.909 38.4489 566.105 35.7134 563.876 34.5988L563.607 35.1354ZM565.08 40.364C560.088 49.1248 553.685 61.8364 547.942 74.8286L548.491 75.0712C554.227 62.0943 560.621 49.4013 565.602 40.6611L565.08 40.364ZM548.383 75.1995C551.723 72.973 554.798 72.2975 557.423 72.7406C560.046 73.1835 562.262 74.7516 563.87 77.0956L564.365 76.7561C562.681 74.3014 560.333 72.6233 557.523 72.1489C554.713 71.6746 551.485 72.4105 548.05 74.7003L548.383 75.1995ZM563.87 77.0945C565.037 78.8107 565.638 80.7648 566.01 82.773C566.386 84.7971 566.521 86.8145 566.784 88.7281C567.044 90.6151 567.426 92.3772 568.311 93.7593C569.208 95.1607 570.603 96.1452 572.819 96.5105L572.917 95.9185C570.852 95.5782 569.613 94.6808 568.816 93.4359C568.007 92.1717 567.637 90.523 567.379 88.6464C567.124 86.7963 566.978 84.6972 566.6 82.6636C566.22 80.6141 565.598 78.5694 564.366 76.7571L563.87 77.0945ZM572.819 96.5105C576.926 97.1868 580.803 95.8271 584.257 92.6359C587.704 89.4517 590.736 84.4404 593.191 77.7824L592.628 77.5748C590.191 84.1836 587.201 89.0989 583.85 92.1952C580.506 95.2847 576.809 96.5595 572.917 95.9185L572.819 96.5105ZM593.191 77.7839C593.982 75.6741 596.165 74.6328 598.262 75.419L598.472 74.8572C596.052 73.9497 593.531 75.1666 592.629 77.5732L593.191 77.7839Z" fill="black"/>
<path d="M435.375 193.672C435.375 231.406 379.426 261.95 377.043 263.211C376.415 263.549 375.713 263.726 375 263.726C374.287 263.726 373.585 263.549 372.957 263.211C370.574 261.95 314.625 231.406 314.625 193.672C314.635 184.811 318.159 176.316 324.425 170.05C330.691 163.784 339.186 160.26 348.047 160.25C359.179 160.25 368.925 165.037 375 173.128C381.075 165.037 390.821 160.25 401.953 160.25C410.814 160.26 419.309 163.784 425.575 170.05C431.841 176.316 435.365 184.811 435.375 193.672Z" fill="black"/>
<path d="M67.1787 343.495C69.0605 347.07 70.7542 351.587 72.1655 355.915C72.8242 358.079 71.5069 360.431 69.3428 361.184C67.2728 361.843 65.1087 360.619 64.5441 358.455C64.356 357.797 64.2619 357.138 64.0737 356.574L58.4282 357.985V389.976C58.4282 392.14 56.5464 394.022 54.3823 394.022C52.2182 394.022 50.3364 392.14 50.3364 389.976V359.396C46.855 359.867 43.3736 360.243 40.1745 360.431C35.8463 360.619 34.2468 354.786 38.1986 352.339C40.645 350.74 43.3736 348.388 46.0082 345.189C44.1264 342.084 41.4918 338.884 39.4218 336.438C37.2577 334.18 37.2577 330.51 39.3277 327.876C42.5268 324.112 45.0673 318.937 46.1964 314.138C46.7609 311.974 48.8309 310.657 50.8068 311.128C53.065 311.692 54.3823 313.95 53.8178 316.114C51.8418 322.701 49.2073 328.064 46.0082 332.204C47.7959 334.18 49.4896 336.25 50.9009 338.508C54.1941 333.239 57.1109 326.935 58.8987 319.784C59.4632 317.62 61.5332 316.397 63.6032 316.773C65.7673 317.338 67.0846 319.502 66.6142 321.572C63.4151 333.803 57.4873 344.812 49.96 352.151C53.4414 351.493 57.5814 350.552 61.1569 349.329C60.6864 348.388 60.1219 347.447 59.5573 346.506C58.4282 344.624 59.1809 342.084 61.251 341.237C63.6032 340.39 66.1437 341.331 67.1787 343.495ZM112.342 333.898H96.0647V345.283H108.861C111.119 345.283 112.907 347.07 112.907 349.329C112.907 351.493 111.119 353.374 108.861 353.374H75.1764C72.9183 353.374 71.1305 351.493 71.1305 349.329C71.1305 347.07 72.9183 345.283 75.1764 345.283H87.8787V333.898H71.6951C69.4369 333.898 67.6492 332.11 67.6492 329.852C67.6492 327.593 69.4369 325.806 71.6951 325.806H87.8787V316.02C87.8787 313.762 89.6665 311.88 91.9247 311.88C94.1829 311.88 96.0647 313.762 96.0647 316.02V325.806H112.342C114.601 325.806 116.482 327.593 116.482 329.852C116.482 332.11 114.601 333.898 112.342 333.898ZM79.6928 359.49H104.157C107.544 359.49 110.367 362.313 110.367 365.7V387.059C110.367 390.446 107.544 393.269 104.157 393.269H79.6928C76.3055 393.269 73.4828 390.446 73.4828 387.059V365.7C73.4828 362.313 76.3055 359.49 79.6928 359.49ZM46.5727 361.466C48.7368 361.937 50.1482 364.007 49.8659 366.077C48.8309 372.099 46.855 380.661 43.8441 388.188C42.9973 390.258 40.5509 391.387 38.2927 390.729C36.1286 389.882 35.1877 387.53 36.2227 385.554C38.8573 379.532 40.8332 372.475 42.1504 364.571C42.5268 362.407 44.5027 360.996 46.5727 361.466ZM66.6142 364.854C68.3078 368.335 70.7542 376.521 71.7892 380.567C72.3537 382.731 71.1305 384.801 68.9664 385.365C66.8964 385.93 64.9205 384.707 64.4501 382.543C63.5091 378.403 61.0628 370.781 59.1809 367.676C57.9578 365.794 58.8046 363.348 60.8746 362.595C63.1328 361.749 65.5791 362.689 66.6142 364.854ZM81.6687 385.177H102.181V367.582H81.6687V385.177ZM162.305 373.134C164.187 374.545 164.657 377.274 163.622 379.532C162.681 381.414 160.141 381.884 158.447 380.473C156.659 378.873 154.495 377.274 152.143 375.768C147.909 382.543 142.358 388 135.489 392.14C133.607 393.269 131.067 392.516 130.126 390.446C129.091 388.47 129.843 386.118 131.725 384.801C137.465 381.131 141.793 376.709 145.086 371.816C142.075 370.311 138.876 369.088 135.771 368.147C132.76 367.206 131.255 363.913 132.572 360.996C135.865 354.033 137.747 346.224 138.876 337.849H133.795C131.631 337.849 129.937 336.062 129.937 333.898C129.937 331.733 131.725 330.04 133.795 330.04H139.723C140.099 325.523 140.288 320.819 140.382 315.926C140.382 313.762 142.169 311.88 144.428 311.88C146.592 311.88 148.379 313.668 148.285 315.926C148.191 320.16 148.097 324.959 147.627 330.04H156.753C160.141 330.04 162.963 332.863 162.775 336.25C162.117 349.046 159.858 359.867 155.907 368.711C158.353 370.217 160.517 371.722 162.305 373.134ZM210.48 350.458C211.515 352.434 210.762 354.786 208.88 355.727C200.13 359.773 193.731 356.668 189.309 346.318C188.556 344.53 187.709 342.46 186.58 339.919L172.843 341.237V347.447C176.607 346.882 180.37 346.129 183.475 345.283C185.734 344.718 188.086 345.941 188.65 348.105C189.309 350.458 187.992 352.81 185.734 353.374C181.217 354.504 175.666 355.444 171.055 356.009C167.762 356.385 164.845 353.751 164.845 350.269V325.806C164.845 322.324 167.48 319.502 170.961 319.125C180.747 318.184 191.944 316.303 200.035 313.856C202.105 313.292 204.27 314.515 204.74 316.585C205.21 318.843 203.987 321.007 201.729 321.666C198.059 322.607 193.261 323.642 188.462 324.488L191.191 331.639L206.245 330.134C208.41 329.852 210.291 331.451 210.48 333.615C210.668 335.685 209.162 337.661 206.998 337.849L194.202 339.167C194.766 340.578 195.331 341.895 195.895 343.024C199.189 349.705 201.165 351.022 205.305 348.952C207.186 348.105 209.539 348.67 210.48 350.458ZM172.843 326.747V333.427L183.569 332.392C182.723 330.416 181.876 328.158 180.935 325.712C177.83 326.182 175.007 326.558 172.843 326.747ZM141.04 361.56C143.298 362.313 146.121 363.442 148.944 364.854C152.708 356.479 154.119 347.164 154.683 337.849H146.874C145.839 346.129 144.051 354.598 141.04 361.56ZM172.279 357.609H200.035C203.423 357.609 206.245 360.337 206.245 363.819V387.059C206.245 390.54 203.423 393.269 200.035 393.269H172.279C168.891 393.269 166.069 390.54 166.069 387.059V363.819C166.069 360.337 168.891 357.609 172.279 357.609ZM198.154 370.499V365.418H174.16V370.499H198.154ZM174.16 378.403V385.46H198.154V378.403H174.16ZM284.153 350.552C308.805 357.232 303.63 391.387 278.037 389.976C272.392 389.694 268.157 387.812 265.052 384.425C263.547 382.731 263.829 380.19 265.617 378.591C267.122 377.274 269.475 377.368 271.168 378.779C279.825 385.836 293.656 379.532 291.962 369.558C289.704 356.479 273.991 353.28 256.866 362.219C256.961 368.617 256.678 375.11 256.114 381.225C255.079 389.317 249.904 391.764 241.153 388.376C231.274 384.236 224.123 378.309 237.484 366.171C241.153 362.878 244.917 360.055 248.681 357.703C248.586 352.245 248.304 346.976 247.834 341.989C242.471 342.93 237.013 343.589 231.368 343.871C229.11 343.965 227.228 342.178 227.228 339.919C227.134 337.755 228.921 335.873 231.085 335.779C236.543 335.497 241.906 334.933 246.893 333.898C246.14 328.44 245.199 323.548 244.164 319.596C243.6 317.432 244.823 315.268 246.987 314.703C249.151 314.233 251.503 315.456 252.068 317.714C253.103 321.572 254.044 326.558 254.796 332.11C257.901 331.263 260.818 330.322 263.547 329.193C265.617 328.346 267.969 329.287 268.91 331.263C269.851 333.333 268.91 335.685 266.84 336.532C263.359 337.944 259.595 339.167 255.737 340.202C256.114 344.436 256.49 348.952 256.678 353.563C266.181 349.423 275.779 348.294 284.153 350.552ZM302.312 340.578C304.194 341.895 304.477 344.53 303.159 346.412C301.842 348.199 299.396 348.482 297.608 347.164C292.809 343.777 286.693 341.707 280.107 341.143C277.943 340.954 276.249 339.073 276.343 336.908C276.532 334.65 278.507 332.863 280.766 333.051C288.857 333.615 296.573 336.344 302.312 340.578ZM240.401 379.155C248.586 383.39 247.928 383.107 248.21 379.155C248.398 376.709 248.586 371.628 248.681 367.3C245.481 369.558 242.753 371.91 240.589 374.169C237.296 377.462 238.048 378.026 240.401 379.155ZM370.152 333.051C399.415 335.403 405.342 381.414 363.848 386.306C361.496 386.589 359.426 384.801 359.238 382.449C359.049 380.096 360.837 378.12 363.189 377.932C393.016 375.674 391.417 341.425 367.329 340.954C363.001 353.186 346.535 386.118 333.739 383.766C319.813 381.225 320.66 358.832 336.279 344.436C335.15 338.979 334.492 333.145 334.303 327.123C334.303 324.771 336.091 322.983 338.443 322.983C340.608 322.983 342.489 324.865 342.489 327.029C342.584 330.51 342.866 334.65 343.619 339.073C348.605 336.062 354.627 333.898 361.496 332.957C362.907 329.005 364.224 324.771 365.354 320.725C365.918 318.561 368.082 317.149 370.34 317.714C372.505 318.278 373.822 320.443 373.257 322.701C372.505 325.523 371.469 329.099 370.152 333.051ZM349.829 358.832C352.369 354.315 355.192 348.67 358.109 341.801C353.498 342.742 349.17 344.624 345.406 347.164C346.441 351.116 347.853 355.068 349.829 358.832ZM332.61 362.689C328.846 376.145 334.303 381.696 344.748 366.924C342.301 362.878 340.137 358.173 338.538 352.998C335.715 356.103 333.645 359.49 332.61 362.689ZM477.228 380.002C479.486 379.344 481.744 380.661 482.215 382.919C482.685 385.365 481.274 387.812 478.922 388.376C465.937 391.67 452.67 387.153 445.802 377.18C439.309 367.864 438.651 349.893 455.305 334.838C445.143 336.062 434.228 336.25 423.126 335.309C420.867 335.215 419.174 333.145 419.362 330.793C419.644 328.534 421.714 326.841 423.972 327.029C444.39 328.628 462.644 326.653 478.169 321.007C480.333 320.254 482.685 321.289 483.626 323.359C484.473 325.523 483.438 327.97 481.274 328.817C477.698 330.134 473.935 331.263 469.889 332.204C451.635 343.683 444.108 361.372 453.141 373.134C459.633 381.602 469.701 382.072 477.228 380.002ZM493.412 345.941C494.07 347.541 493.318 349.234 491.906 349.893C490.401 350.552 488.707 349.799 488.143 348.294C486.637 344.342 484.473 341.143 481.462 338.32C480.333 337.191 480.333 335.497 481.368 334.368C482.497 333.333 484.285 333.239 485.414 334.274C489.083 337.567 491.248 340.766 493.412 345.941ZM477.887 337.944C481.274 341.049 483.72 344.624 485.79 349.423C486.449 351.022 485.602 352.81 484.097 353.469C482.591 354.127 480.898 353.374 480.333 351.775C478.828 347.823 476.946 345 473.935 342.272C472.712 341.237 472.523 339.355 473.652 338.226C474.687 337.003 476.663 336.814 477.887 337.944ZM577.341 380.19C577.717 382.543 576.4 384.707 574.048 385.271C545.162 392.328 528.225 389.882 522.862 377.556C518.91 368.523 523.991 358.832 532.083 349.893L527.567 345.753C522.392 341.049 519.004 336.72 519.287 328.628C519.381 326.276 521.451 324.488 523.803 324.583C526.061 324.677 527.755 326.747 527.661 328.911C527.473 332.58 528.319 334.838 531.33 337.849C532.554 339.073 534.906 341.331 537.823 344.059C543.75 338.508 550.431 333.521 555.982 329.475C555.135 329.475 554.1 329.569 553.16 329.663C550.995 330.04 548.925 328.346 548.831 326.182C548.737 323.924 550.525 321.76 552.783 321.666C557.676 321.289 562.569 321.948 566.991 323.736C569.908 325.053 570.096 329.099 567.461 330.887C561.722 334.933 551.748 341.707 543.562 349.329C548.643 354.033 553.912 358.832 557.017 361.654C558.711 363.16 558.805 365.794 557.205 367.488C555.7 369.276 553.065 369.37 551.372 367.676L537.729 355.162C532.365 361.09 528.884 367.206 529.825 372.569C531.424 381.602 546.291 383.295 572.354 377.085C574.518 376.521 576.776 377.932 577.341 380.19ZM641.699 325.994C634.831 321.666 627.774 320.066 619.023 320.819C616.671 320.913 614.789 319.219 614.789 316.961C614.789 314.515 616.671 312.351 619.023 312.257C628.715 311.598 639.065 314.515 645.839 318.561C647.909 319.784 648.568 322.607 647.345 324.771C646.122 326.747 643.581 327.311 641.699 325.994ZM620.623 392.328C618.365 392.987 616.012 391.575 615.354 389.223C614.883 386.965 616.201 384.613 618.459 383.954C643.393 376.615 648.097 359.679 645.181 348.764C642.452 337.849 624.481 339.073 613.754 351.304C612.155 353.092 609.52 353.28 607.826 351.681C605.945 350.175 605.568 347.259 607.168 345.283C619.964 330.604 643.581 328.817 651.579 341.989C657.695 352.245 655.813 371.628 638.124 384.142C633.325 387.624 627.397 390.352 620.623 392.328ZM700.883 373.698C698.813 373.698 697.213 372.005 697.213 370.029L695.99 319.784C695.896 317.055 698.154 314.797 700.883 314.797C703.611 314.797 705.869 317.055 705.775 319.784L704.552 370.029C704.552 372.005 702.953 373.698 700.883 373.698ZM700.883 391.199C697.401 391.199 694.39 388.376 694.39 384.801C694.39 381.225 697.401 378.309 700.883 378.309C704.458 378.309 707.375 381.225 707.375 384.801C707.375 388.282 704.458 391.199 700.883 391.199Z" fill="black"/>
<path d="M67.1787 343.495L66.9079 343.624L66.9132 343.635L67.1787 343.495ZM72.1655 355.915L72.4526 355.828L72.4507 355.822L72.1655 355.915ZM69.3428 361.184L69.4338 361.47L69.4414 361.467L69.3428 361.184ZM64.5441 358.455L64.8345 358.38L64.8326 358.373L64.5441 358.455ZM64.0737 356.574L64.3583 356.479L64.2704 356.215L64.0009 356.283L64.0737 356.574ZM58.4282 357.985L58.3555 357.694L58.1282 357.751V357.985H58.4282ZM50.3364 359.396H50.6364V359.053L50.2962 359.099L50.3364 359.396ZM40.1745 360.431L40.1876 360.731L40.1922 360.731L40.1745 360.431ZM38.1986 352.339L38.3566 352.595L38.3628 352.591L38.1986 352.339ZM46.0082 345.189L46.2398 345.379L46.375 345.215L46.2647 345.033L46.0082 345.189ZM39.4218 336.438L39.6508 336.244L39.6448 336.237L39.6384 336.23L39.4218 336.438ZM39.3277 327.876L39.099 327.681L39.0918 327.69L39.3277 327.876ZM46.1964 314.138L45.906 314.063L45.9043 314.07L46.1964 314.138ZM50.8068 311.128L50.8796 310.836L50.8763 310.836L50.8068 311.128ZM53.8178 316.114L54.1053 316.201L54.108 316.19L53.8178 316.114ZM46.0082 332.204L45.7708 332.021L45.6173 332.219L45.7857 332.405L46.0082 332.204ZM50.9009 338.508L50.6465 338.667L50.9009 339.074L51.1553 338.667L50.9009 338.508ZM58.8987 319.784L58.6084 319.708L58.6076 319.711L58.8987 319.784ZM63.6032 316.773L63.679 316.483L63.668 316.48L63.6569 316.478L63.6032 316.773ZM66.6142 321.572L66.9045 321.648L66.9067 321.638L66.6142 321.572ZM49.96 352.151L49.7506 351.936L49.0383 352.631L50.0158 352.446L49.96 352.151ZM61.1569 349.329L61.254 349.612L61.5787 349.501L61.4252 349.194L61.1569 349.329ZM59.5573 346.506L59.3001 346.66L59.3001 346.66L59.5573 346.506ZM61.251 341.237L61.1492 340.954L61.1374 340.959L61.251 341.237ZM96.0647 333.898V333.598H95.7647V333.898H96.0647ZM96.0647 345.283H95.7647V345.583H96.0647V345.283ZM87.8787 345.283V345.583H88.1787V345.283H87.8787ZM87.8787 333.898H88.1787V333.598H87.8787V333.898ZM87.8787 325.806V326.106H88.1787V325.806H87.8787ZM96.0647 325.806H95.7647V326.106H96.0647V325.806ZM46.5727 361.466L46.5062 361.759L46.509 361.759L46.5727 361.466ZM49.8659 366.077L50.1618 366.128L50.1632 366.117L49.8659 366.077ZM43.8441 388.188L44.1218 388.302L44.1226 388.3L43.8441 388.188ZM38.2927 390.729L38.1834 391.008L38.1959 391.013L38.2087 391.017L38.2927 390.729ZM36.2227 385.554L36.4885 385.693L36.4933 385.684L36.4976 385.674L36.2227 385.554ZM42.1504 364.571L41.8549 364.52L41.8545 364.522L42.1504 364.571ZM66.6142 364.854L66.3435 364.983L66.3444 364.985L66.6142 364.854ZM71.7892 380.567L71.4985 380.641L71.4989 380.643L71.7892 380.567ZM68.9664 385.365L68.8907 385.075L68.8875 385.076L68.9664 385.365ZM64.4501 382.543L64.7432 382.479L64.7426 382.476L64.4501 382.543ZM59.1809 367.676L59.4376 367.521L59.4325 367.513L59.1809 367.676ZM60.8746 362.595L60.9771 362.877L60.9799 362.876L60.8746 362.595ZM81.6687 385.177H81.3687V385.477H81.6687V385.177ZM102.181 385.177V385.477H102.481V385.177H102.181ZM102.181 367.582H102.481V367.282H102.181V367.582ZM81.6687 367.582V367.282H81.3687V367.582H81.6687ZM66.9132 343.635C68.7833 347.188 70.4708 351.685 71.8803 356.008L72.4507 355.822C71.0376 351.488 69.3378 346.953 67.4442 343.355L66.9132 343.635ZM71.8785 356.002C72.4859 357.998 71.2707 360.196 69.2442 360.901L69.4414 361.467C71.7431 360.667 73.1624 358.16 72.4525 355.828L71.8785 356.002ZM69.2518 360.898C67.3525 361.502 65.3574 360.384 64.8344 358.38L64.2539 358.531C64.86 360.855 67.1931 362.183 69.4338 361.47L69.2518 360.898ZM64.8326 358.373C64.7415 358.054 64.6731 357.735 64.6018 357.414C64.5314 357.097 64.4579 356.778 64.3583 356.479L63.7891 356.668C63.8777 356.934 63.9453 357.226 64.0161 357.544C64.0858 357.858 64.1586 358.198 64.2557 358.538L64.8326 358.373ZM64.0009 356.283L58.3555 357.694L58.501 358.276L64.1464 356.865L64.0009 356.283ZM58.1282 357.985V389.976H58.7282V357.985H58.1282ZM58.1282 389.976C58.1282 391.974 56.3807 393.722 54.3823 393.722V394.322C56.7121 394.322 58.7282 392.306 58.7282 389.976H58.1282ZM54.3823 393.722C52.3839 393.722 50.6364 391.974 50.6364 389.976H50.0364C50.0364 392.306 52.0525 394.322 54.3823 394.322V393.722ZM50.6364 389.976V359.396H50.0364V389.976H50.6364ZM50.2962 359.099C46.8195 359.569 43.3461 359.944 40.1569 360.132L40.1922 360.731C43.4012 360.542 46.8905 360.165 50.3766 359.694L50.2962 359.099ZM40.1615 360.132C38.1581 360.219 36.7888 358.921 36.3721 357.299C35.9555 355.676 36.5 353.744 38.3565 352.595L38.0407 352.084C35.9454 353.381 35.3138 355.589 35.791 357.448C36.2682 359.307 37.8628 360.832 40.1876 360.731L40.1615 360.132ZM38.3628 352.591C40.8357 350.974 43.5868 348.601 46.2398 345.379L45.7766 344.998C43.1605 348.175 40.4543 350.506 38.0344 352.088L38.3628 352.591ZM46.2647 345.033C44.3693 341.905 41.7204 338.69 39.6508 336.244L39.1928 336.632C41.2632 339.079 43.8835 342.262 45.7516 345.344L46.2647 345.033ZM39.6384 336.23C37.5925 334.096 37.5721 330.596 39.5636 328.061L39.0918 327.69C36.9434 330.425 36.9229 334.264 39.2052 336.646L39.6384 336.23ZM39.5563 328.07C42.7878 324.268 45.349 319.05 46.4884 314.207L45.9043 314.07C44.7856 318.825 42.2658 323.956 39.0991 327.681L39.5563 328.07ZM46.4867 314.214C47.0149 312.189 48.9383 310.991 50.7373 311.419L50.8763 310.836C48.7235 310.323 46.5069 311.759 45.9061 314.063L46.4867 314.214ZM50.7341 311.419C52.8321 311.943 54.0494 314.038 53.5275 316.039L54.108 316.19C54.7152 313.863 53.2979 311.441 50.8796 310.836L50.7341 311.419ZM53.5304 316.028C51.5624 322.588 48.9424 327.916 45.7708 332.021L46.2456 332.387C49.4722 328.212 52.1213 322.813 54.1051 316.201L53.5304 316.028ZM45.7857 332.405C47.5674 334.374 49.2482 336.43 50.6465 338.667L51.1553 338.349C49.7309 336.07 48.0244 333.985 46.2306 332.003L45.7857 332.405ZM51.1553 338.667C54.4631 333.375 57.3935 327.042 59.1897 319.857L58.6076 319.711C56.8284 326.828 53.9251 333.103 50.6465 338.349L51.1553 338.667ZM59.189 319.86C59.7126 317.852 61.629 316.719 63.5496 317.068L63.6569 316.478C61.4375 316.074 59.2138 317.387 58.6084 319.708L59.189 319.86ZM63.5275 317.063C65.5403 317.588 66.7549 319.599 66.3216 321.505L66.9067 321.638C67.4143 319.405 65.9943 317.087 63.679 316.483L63.5275 317.063ZM66.3239 321.496C63.1354 333.687 57.2305 344.644 49.7506 351.936L50.1694 352.366C57.7441 344.981 63.6947 333.92 66.9044 321.648L66.3239 321.496ZM50.0158 352.446C53.5034 351.786 57.6591 350.842 61.254 349.612L61.0598 349.045C57.5037 350.261 53.3794 351.199 49.9042 351.856L50.0158 352.446ZM61.4252 349.194C60.9487 348.241 60.3779 347.29 59.8146 346.351L59.3001 346.66C59.8658 347.603 60.4241 348.534 60.8885 349.463L61.4252 349.194ZM59.8146 346.351C58.7745 344.618 59.4745 342.288 61.3645 341.514L61.1374 340.959C58.8874 341.879 58.082 344.63 59.3001 346.66L59.8146 346.351ZM61.3526 341.519C63.5745 340.719 65.946 341.613 66.9081 343.624L67.4493 343.365C66.3414 341.049 63.6319 340.061 61.1493 340.954L61.3526 341.519ZM112.342 333.598H96.0647V334.198H112.342V333.598ZM95.7647 333.898V345.283H96.3647V333.898H95.7647ZM96.0647 345.583H108.861V344.983H96.0647V345.583ZM108.861 345.583C110.954 345.583 112.607 347.236 112.607 349.329H113.207C113.207 346.905 111.285 344.983 108.861 344.983V345.583ZM112.607 349.329C112.607 351.331 110.949 353.074 108.861 353.074V353.674C111.289 353.674 113.207 351.654 113.207 349.329H112.607ZM108.861 353.074H75.1764V353.674H108.861V353.074ZM75.1764 353.074C73.0885 353.074 71.4305 351.331 71.4305 349.329H70.8305C70.8305 351.654 72.7481 353.674 75.1764 353.674V353.074ZM71.4305 349.329C71.4305 347.236 73.0839 345.583 75.1764 345.583V344.983C72.7526 344.983 70.8305 346.905 70.8305 349.329H71.4305ZM75.1764 345.583H87.8787V344.983H75.1764V345.583ZM88.1787 345.283V333.898H87.5787V345.283H88.1787ZM87.8787 333.598H71.6951V334.198H87.8787V333.598ZM71.6951 333.598C69.6026 333.598 67.9492 331.944 67.9492 329.852H67.3492C67.3492 332.276 69.2712 334.198 71.6951 334.198V333.598ZM67.9492 329.852C67.9492 327.759 69.6026 326.106 71.6951 326.106V325.506C69.2712 325.506 67.3492 327.428 67.3492 329.852H67.9492ZM71.6951 326.106H87.8787V325.506H71.6951V326.106ZM88.1787 325.806V316.02H87.5787V325.806H88.1787ZM88.1787 316.02C88.1787 313.919 89.8411 312.18 91.9247 312.18V311.58C89.4919 311.58 87.5787 313.605 87.5787 316.02H88.1787ZM91.9247 312.18C94.0172 312.18 95.7647 313.928 95.7647 316.02H96.3647C96.3647 313.596 94.3485 311.58 91.9247 311.58V312.18ZM95.7647 316.02V325.806H96.3647V316.02H95.7647ZM96.0647 326.106H112.342V325.506H96.0647V326.106ZM112.342 326.106C114.444 326.106 116.182 327.768 116.182 329.852H116.782C116.782 327.419 114.757 325.506 112.342 325.506V326.106ZM116.182 329.852C116.182 331.935 114.444 333.598 112.342 333.598V334.198C114.757 334.198 116.782 332.284 116.782 329.852H116.182ZM79.6928 359.79H104.157V359.19H79.6928V359.79ZM104.157 359.79C107.378 359.79 110.067 362.479 110.067 365.7H110.667C110.667 362.147 107.709 359.19 104.157 359.19V359.79ZM110.067 365.7V387.059H110.667V365.7H110.067ZM110.067 387.059C110.067 390.281 107.378 392.969 104.157 392.969V393.569C107.709 393.569 110.667 390.612 110.667 387.059H110.067ZM104.157 392.969H79.6928V393.569H104.157V392.969ZM79.6928 392.969C76.4712 392.969 73.7828 390.281 73.7828 387.059H73.1828C73.1828 390.612 76.1399 393.569 79.6928 393.569V392.969ZM73.7828 387.059V365.7H73.1828V387.059H73.7828ZM73.7828 365.7C73.7828 362.479 76.4712 359.79 79.6928 359.79V359.19C76.1399 359.19 73.1828 362.147 73.1828 365.7H73.7828ZM46.509 361.759C48.5217 362.197 49.8296 364.123 49.5687 366.036L50.1632 366.117C50.4668 363.891 48.952 361.677 46.6365 361.173L46.509 361.759ZM49.5703 366.026C48.5373 372.036 46.5659 380.576 43.5655 388.077L44.1226 388.3C47.1441 380.746 49.1245 372.161 50.1616 366.128L49.5703 366.026ZM43.5664 388.075C42.7816 389.993 40.4975 391.059 38.3767 390.441L38.2087 391.017C40.6043 391.715 43.2129 390.523 44.1218 388.302L43.5664 388.075ZM38.402 390.449C36.3914 389.663 35.5426 387.498 36.4885 385.693L35.957 385.414C34.8328 387.561 35.8658 390.101 38.1834 391.008L38.402 390.449ZM36.4976 385.674C39.1442 379.624 41.126 372.543 42.4464 364.621L41.8545 364.522C40.5403 372.407 38.5703 379.439 35.9479 385.433L36.4976 385.674ZM42.446 364.623C42.7957 362.612 44.6188 361.33 46.5062 361.759L46.6392 361.174C44.3866 360.662 42.2579 362.202 41.8549 364.52L42.446 364.623ZM66.3444 364.985C68.0232 368.436 70.4634 376.595 71.4985 380.641L72.0798 380.492C71.045 376.447 68.5924 368.234 66.8839 364.722L66.3444 364.985ZM71.4989 380.643C72.0213 382.645 70.8956 384.552 68.8907 385.075L69.0422 385.656C71.3654 385.05 72.6861 382.817 72.0794 380.491L71.4989 380.643ZM68.8875 385.076C66.99 385.594 65.1787 384.482 64.7432 382.479L64.1569 382.606C64.6624 384.932 66.8029 386.266 69.0454 385.655L68.8875 385.076ZM64.7426 382.476C64.2693 380.394 63.4192 377.443 62.4521 374.624C61.4872 371.812 60.3965 369.103 59.4375 367.521L58.9244 367.832C59.8472 369.354 60.9207 372.009 61.8846 374.819C62.8464 377.622 63.6899 380.552 64.1575 382.609L64.7426 382.476ZM59.4325 367.513C58.3154 365.794 59.0869 363.565 60.9771 362.877L60.7721 362.313C58.5223 363.132 57.6001 365.795 58.9294 367.84L59.4325 367.513ZM60.9799 362.876C63.0978 362.082 65.378 362.964 66.3435 364.983L66.8848 364.724C65.7803 362.415 63.1678 361.415 60.7693 362.314L60.9799 362.876ZM81.6687 385.477H102.181V384.877H81.6687V385.477ZM102.481 385.177V367.582H101.881V385.177H102.481ZM102.181 367.282H81.6687V367.882H102.181V367.282ZM81.3687 367.582V385.177H81.9687V367.582H81.3687ZM162.305 373.134L162.119 373.369L162.125 373.374L162.305 373.134ZM163.622 379.532L163.891 379.666L163.895 379.657L163.622 379.532ZM158.447 380.473L158.247 380.696L158.255 380.703L158.447 380.473ZM152.143 375.768L152.305 375.515L152.049 375.352L151.889 375.609L152.143 375.768ZM135.489 392.14L135.643 392.397L135.644 392.397L135.489 392.14ZM130.126 390.446L130.399 390.322L130.395 390.315L130.391 390.307L130.126 390.446ZM131.725 384.801L131.563 384.548L131.553 384.555L131.725 384.801ZM145.086 371.816L145.335 371.984L145.526 371.701L145.22 371.548L145.086 371.816ZM135.771 368.147L135.682 368.433L135.684 368.434L135.771 368.147ZM132.572 360.996L132.301 360.868L132.299 360.872L132.572 360.996ZM138.876 337.849L139.173 337.889L139.219 337.549H138.876V337.849ZM139.723 330.04V330.34H139.999L140.022 330.065L139.723 330.04ZM140.382 315.926L140.682 315.932V315.926H140.382ZM148.285 315.926L147.985 315.914L147.985 315.92L148.285 315.926ZM147.627 330.04L147.328 330.012L147.298 330.34H147.627V330.04ZM162.775 336.25L162.476 336.233L162.476 336.234L162.775 336.25ZM155.907 368.711L155.633 368.589L155.525 368.829L155.749 368.967L155.907 368.711ZM210.48 350.458L210.745 350.318L210.745 350.318L210.48 350.458ZM208.88 355.727L209.006 355.999L209.014 355.995L208.88 355.727ZM189.309 346.318L189.033 346.434L189.033 346.435L189.309 346.318ZM186.58 339.919L186.855 339.798L186.767 339.6L186.552 339.621L186.58 339.919ZM172.843 341.237L172.814 340.938L172.543 340.964V341.237H172.843ZM172.843 347.447H172.543V347.795L172.888 347.743L172.843 347.447ZM183.475 345.283L183.403 344.992L183.396 344.993L183.475 345.283ZM188.65 348.105L188.36 348.181L188.361 348.186L188.65 348.105ZM185.734 353.374L185.661 353.083L185.661 353.083L185.734 353.374ZM171.055 356.009L171.089 356.307L171.092 356.307L171.055 356.009ZM170.961 319.125L170.933 318.827L170.929 318.827L170.961 319.125ZM200.035 313.856L199.956 313.567L199.949 313.569L200.035 313.856ZM204.74 316.585L205.034 316.524L205.033 316.518L204.74 316.585ZM201.729 321.666L201.804 321.956L201.813 321.954L201.729 321.666ZM188.462 324.488L188.41 324.193L188.052 324.256L188.182 324.595L188.462 324.488ZM191.191 331.639L190.911 331.746L190.992 331.961L191.221 331.938L191.191 331.639ZM206.245 330.134L206.275 330.433L206.284 330.431L206.245 330.134ZM210.48 333.615L210.181 333.641L210.181 333.642L210.48 333.615ZM206.998 337.849L206.972 337.55L206.967 337.551L206.998 337.849ZM194.202 339.167L194.171 338.868L193.776 338.909L193.923 339.278L194.202 339.167ZM195.895 343.024L196.164 342.892L196.164 342.89L195.895 343.024ZM205.305 348.952L205.181 348.678L205.17 348.684L205.305 348.952ZM172.843 326.747L172.817 326.448L172.543 326.472V326.747H172.843ZM172.843 333.427H172.543V333.757L172.872 333.726L172.843 333.427ZM183.569 332.392L183.598 332.691L184.007 332.651L183.845 332.274L183.569 332.392ZM180.935 325.712L181.215 325.604L181.128 325.379L180.89 325.415L180.935 325.712ZM141.04 361.56L140.765 361.441L140.635 361.742L140.945 361.845L141.04 361.56ZM148.944 364.854L148.81 365.122L149.089 365.262L149.218 364.977L148.944 364.854ZM154.683 337.849L154.983 337.868L155.002 337.549H154.683V337.849ZM146.874 337.849V337.549H146.609L146.576 337.812L146.874 337.849ZM198.154 370.499V370.799H198.454V370.499H198.154ZM198.154 365.418H198.454V365.118H198.154V365.418ZM174.16 365.418V365.118H173.86V365.418H174.16ZM174.16 370.499H173.86V370.799H174.16V370.499ZM174.16 378.403V378.103H173.86V378.403H174.16ZM174.16 385.46H173.86V385.76H174.16V385.46ZM198.154 385.46V385.76H198.454V385.46H198.154ZM198.154 378.403H198.454V378.103H198.154V378.403ZM162.125 373.374C163.872 374.684 164.338 377.25 163.349 379.407L163.895 379.657C164.976 377.297 164.502 374.406 162.485 372.894L162.125 373.374ZM163.354 379.398C162.507 381.092 160.197 381.54 158.639 380.242L158.255 380.703C160.085 382.228 162.856 381.735 163.89 379.666L163.354 379.398ZM158.647 380.249C156.845 378.636 154.667 377.027 152.305 375.515L151.981 376.021C154.324 377.52 156.474 379.11 158.247 380.696L158.647 380.249ZM151.889 375.609C147.68 382.344 142.162 387.767 135.334 391.883L135.644 392.397C142.553 388.233 148.138 382.742 152.397 375.927L151.889 375.609ZM135.335 391.883C133.605 392.92 131.265 392.228 130.399 390.322L129.853 390.571C130.868 392.805 133.609 393.618 135.643 392.397L135.335 391.883ZM130.391 390.307C129.438 388.487 130.118 386.292 131.897 385.047L131.553 384.555C129.569 385.944 128.744 388.454 129.86 390.586L130.391 390.307ZM131.887 385.054C137.662 381.361 142.02 376.909 145.335 371.984L144.837 371.649C141.566 376.509 137.267 380.902 131.564 384.548L131.887 385.054ZM145.22 371.548C142.192 370.034 138.977 368.805 135.858 367.86L135.684 368.434C138.775 369.371 141.958 370.588 144.952 372.085L145.22 371.548ZM135.861 367.86C133.021 366.973 131.603 363.871 132.845 361.119L132.299 360.872C130.907 363.954 132.5 367.439 135.682 368.433L135.861 367.86ZM132.843 361.124C136.154 354.124 138.042 346.281 139.173 337.889L138.579 337.809C137.452 346.166 135.576 353.942 132.301 360.868L132.843 361.124ZM138.876 337.549H133.795V338.149H138.876V337.549ZM133.795 337.549C131.806 337.549 130.237 335.905 130.237 333.898H129.637C129.637 336.218 131.456 338.149 133.795 338.149V337.549ZM130.237 333.898C130.237 331.904 131.886 330.34 133.795 330.34V329.74C131.564 329.74 129.637 331.563 129.637 333.898H130.237ZM133.795 330.34H139.723V329.74H133.795V330.34ZM140.022 330.065C140.399 325.54 140.587 320.828 140.682 315.932L140.082 315.92C139.988 320.809 139.8 325.507 139.424 330.015L140.022 330.065ZM140.682 315.926C140.682 313.923 142.34 312.18 144.428 312.18V311.58C141.999 311.58 140.082 313.601 140.082 315.926H140.682ZM144.428 312.18C146.424 312.18 148.072 313.828 147.986 315.914L148.585 315.939C148.686 313.507 146.76 311.58 144.428 311.58V312.18ZM147.985 315.92C147.891 320.155 147.797 324.943 147.328 330.012L147.925 330.068C148.397 324.974 148.491 320.165 148.585 315.933L147.985 315.92ZM147.627 330.34H156.753V329.74H147.627V330.34ZM156.753 330.34C159.979 330.34 162.654 333.028 162.476 336.233L163.075 336.267C163.273 332.697 160.303 329.74 156.753 329.74V330.34ZM162.476 336.234C161.818 349.006 159.565 359.788 155.633 368.589L156.181 368.834C160.152 359.946 162.415 349.086 163.075 336.265L162.476 336.234ZM155.749 368.967C158.187 370.467 160.342 371.966 162.119 373.369L162.491 372.898C160.693 371.478 158.519 369.966 156.064 368.456L155.749 368.967ZM210.214 350.597C211.174 352.431 210.471 354.596 208.746 355.458L209.014 355.995C211.053 354.976 211.855 352.436 210.745 350.318L210.214 350.597ZM208.754 355.454C204.431 357.454 200.742 357.663 197.602 356.15C194.45 354.631 191.783 351.345 189.585 346.2L189.033 346.435C191.257 351.641 194.001 355.081 197.341 356.691C200.694 358.306 204.579 358.046 209.006 355.999L208.754 355.454ZM189.586 346.201C188.834 344.416 187.985 342.342 186.855 339.798L186.306 340.041C187.434 342.578 188.279 344.643 189.033 346.434L189.586 346.201ZM186.552 339.621L172.814 340.938L172.872 341.535L186.609 340.218L186.552 339.621ZM172.543 341.237V347.447H173.143V341.237H172.543ZM172.888 347.743C176.66 347.178 180.435 346.423 183.554 345.572L183.396 344.993C180.306 345.836 176.554 346.587 172.799 347.15L172.888 347.743ZM183.548 345.574C185.67 345.043 187.843 346.199 188.36 348.181L188.941 348.03C188.329 345.684 185.797 344.393 183.403 344.992L183.548 345.574ZM188.361 348.186C188.978 350.387 187.744 352.563 185.661 353.083L185.806 353.665C188.239 353.057 189.64 350.529 188.939 348.024L188.361 348.186ZM185.661 353.083C181.159 354.209 175.621 355.148 171.019 355.711L171.092 356.307C175.711 355.741 181.275 354.798 185.806 353.665L185.661 353.083ZM171.021 355.711C167.914 356.066 165.145 353.58 165.145 350.269H164.545C164.545 353.922 167.61 356.705 171.089 356.307L171.021 355.711ZM165.145 350.269V325.806H164.545V350.269H165.145ZM165.145 325.806C165.145 322.484 167.658 319.784 170.993 319.424L170.929 318.827C167.302 319.219 164.545 322.164 164.545 325.806H165.145ZM170.99 319.424C180.787 318.482 192.005 316.597 200.122 314.143L199.949 313.569C191.882 316.008 180.707 317.887 170.933 318.827L170.99 319.424ZM200.114 314.146C202.03 313.623 204.017 314.758 204.447 316.651L205.033 316.518C204.522 314.272 202.181 312.96 199.956 313.567L200.114 314.146ZM204.446 316.646C204.886 318.757 203.747 320.765 201.645 321.378L201.813 321.954C204.228 321.249 205.535 318.929 205.034 316.524L204.446 316.646ZM201.655 321.375C197.993 322.314 193.202 323.347 188.41 324.193L188.514 324.784C193.32 323.936 198.126 322.899 201.804 321.956L201.655 321.375ZM188.182 324.595L190.911 331.746L191.471 331.532L188.742 324.382L188.182 324.595ZM191.221 331.938L206.275 330.432L206.216 329.835L191.161 331.341L191.221 331.938ZM206.284 330.431C208.27 330.172 210.006 331.638 210.181 333.641L210.778 333.589C210.576 331.264 208.549 329.531 206.207 329.836L206.284 330.431ZM210.181 333.642C210.355 335.558 208.96 337.378 206.972 337.551L207.024 338.148C209.365 337.945 210.98 335.812 210.778 333.588L210.181 333.642ZM206.967 337.551L194.171 338.868L194.232 339.465L207.029 338.148L206.967 337.551ZM193.923 339.278C194.489 340.693 195.057 342.019 195.627 343.159L196.164 342.89C195.605 341.772 195.044 340.463 194.48 339.055L193.923 339.278ZM195.626 343.157C196.452 344.832 197.201 346.182 197.926 347.231C198.651 348.278 199.363 349.04 200.121 349.523C201.677 350.513 203.333 350.273 205.439 349.22L205.17 348.684C203.136 349.701 201.734 349.838 200.443 349.017C199.779 348.594 199.121 347.903 198.419 346.889C197.719 345.876 196.985 344.557 196.164 342.892L195.626 343.157ZM205.428 349.226C207.198 348.429 209.363 348.98 210.214 350.597L210.745 350.318C209.715 348.36 207.175 347.781 205.181 348.679L205.428 349.226ZM172.543 326.747V333.427H173.143V326.747H172.543ZM172.872 333.726L183.598 332.691L183.541 332.094L172.814 333.129L172.872 333.726ZM183.845 332.274C183.001 330.305 182.157 328.054 181.215 325.604L180.655 325.819C181.594 328.262 182.444 330.528 183.294 332.51L183.845 332.274ZM180.89 325.415C177.787 325.885 174.971 326.26 172.817 326.448L172.869 327.046C175.043 326.856 177.873 326.479 180.98 326.008L180.89 325.415ZM140.945 361.845C143.191 362.593 146 363.717 148.81 365.122L149.078 364.585C146.242 363.167 143.406 362.033 141.135 361.276L140.945 361.845ZM149.218 364.977C153.003 356.554 154.417 347.197 154.983 337.868L154.384 337.831C153.82 347.132 152.412 356.405 148.67 364.731L149.218 364.977ZM154.683 337.549H146.874V338.149H154.683V337.549ZM146.576 337.812C145.543 346.079 143.76 354.516 140.765 361.441L141.316 361.679C144.343 354.68 146.135 346.18 147.172 337.887L146.576 337.812ZM172.279 357.909H200.035V357.309H172.279V357.909ZM200.035 357.909C203.26 357.909 205.945 360.506 205.945 363.819H206.545C206.545 360.169 203.585 357.309 200.035 357.309V357.909ZM205.945 363.819V387.059H206.545V363.819H205.945ZM205.945 387.059C205.945 390.372 203.26 392.969 200.035 392.969V393.569C203.585 393.569 206.545 390.709 206.545 387.059H205.945ZM200.035 392.969H172.279V393.569H200.035V392.969ZM172.279 392.969C169.054 392.969 166.369 390.372 166.369 387.059H165.769C165.769 390.709 168.729 393.569 172.279 393.569V392.969ZM166.369 387.059V363.819H165.769V387.059H166.369ZM166.369 363.819C166.369 360.506 169.054 357.909 172.279 357.909V357.309C168.729 357.309 165.769 360.169 165.769 363.819H166.369ZM198.454 370.499V365.418H197.854V370.499H198.454ZM198.154 365.118H174.16V365.718H198.154V365.118ZM173.86 365.418V370.499H174.46V365.418H173.86ZM174.16 370.799H198.154V370.199H174.16V370.799ZM173.86 378.403V385.46H174.46V378.403H173.86ZM174.16 385.76H198.154V385.16H174.16V385.76ZM198.454 385.46V378.403H197.854V385.46H198.454ZM198.154 378.103H174.16V378.703H198.154V378.103ZM284.153 350.552L284.231 350.262L284.231 350.262L284.153 350.552ZM278.037 389.976L278.053 389.676L278.052 389.676L278.037 389.976ZM265.052 384.425L264.828 384.624L264.831 384.627L265.052 384.425ZM265.617 378.591L265.419 378.365L265.417 378.367L265.617 378.591ZM271.168 378.779L270.976 379.01L270.979 379.012L271.168 378.779ZM291.962 369.558L292.258 369.508L292.258 369.507L291.962 369.558ZM256.866 362.219L256.728 361.953L256.564 362.039L256.567 362.223L256.866 362.219ZM256.114 381.225L256.411 381.264L256.412 381.253L256.114 381.225ZM241.153 388.376L241.037 388.653L241.045 388.656L241.153 388.376ZM237.484 366.171L237.283 365.948L237.282 365.949L237.484 366.171ZM248.681 357.703L248.84 357.957L248.983 357.867L248.98 357.697L248.681 357.703ZM247.834 341.989L248.132 341.961L248.102 341.638L247.782 341.694L247.834 341.989ZM231.368 343.871L231.38 344.171L231.383 344.171L231.368 343.871ZM227.228 339.919H227.528L227.527 339.906L227.228 339.919ZM231.085 335.779L231.099 336.079L231.101 336.079L231.085 335.779ZM246.893 333.898L246.954 334.191L247.228 334.134L247.19 333.857L246.893 333.898ZM244.164 319.596L243.874 319.671L243.874 319.672L244.164 319.596ZM246.987 314.703L246.923 314.41L246.911 314.413L246.987 314.703ZM252.068 317.714L251.777 317.787L251.778 317.792L252.068 317.714ZM254.796 332.11L254.499 332.15L254.545 332.489L254.875 332.399L254.796 332.11ZM263.547 329.193L263.433 328.915L263.432 328.916L263.547 329.193ZM268.91 331.263L269.183 331.139L269.181 331.134L268.91 331.263ZM266.84 336.532L266.953 336.81L266.954 336.81L266.84 336.532ZM255.737 340.202L255.66 339.912L255.416 339.977L255.439 340.228L255.737 340.202ZM256.678 353.563L256.379 353.575L256.396 354.013L256.798 353.838L256.678 353.563ZM302.312 340.578L302.134 340.82L302.14 340.824L302.312 340.578ZM303.159 346.412L303.401 346.59L303.405 346.584L303.159 346.412ZM297.608 347.164L297.786 346.923L297.781 346.919L297.608 347.164ZM280.107 341.143L280.081 341.441L280.081 341.442L280.107 341.143ZM276.343 336.908L276.044 336.884L276.044 336.895L276.343 336.908ZM280.766 333.051L280.741 333.35L280.745 333.35L280.766 333.051ZM240.401 379.155L240.538 378.889L240.53 378.885L240.401 379.155ZM248.21 379.155L247.911 379.132L247.911 379.134L248.21 379.155ZM248.681 367.3L248.98 367.306L248.993 366.712L248.508 367.055L248.681 367.3ZM240.589 374.169L240.801 374.381L240.805 374.376L240.589 374.169ZM284.074 350.841C296.244 354.139 301.03 364.197 299.64 373.253C298.251 382.307 290.687 390.373 278.053 389.676L278.02 390.275C290.98 390.99 298.8 382.685 300.233 373.344C301.666 364.005 296.713 353.645 284.231 350.262L284.074 350.841ZM278.052 389.676C272.471 389.397 268.316 387.541 265.274 384.222L264.831 384.627C267.999 388.082 272.312 389.99 278.022 390.276L278.052 389.676ZM265.277 384.225C263.897 382.673 264.134 380.321 265.817 378.814L265.417 378.367C263.525 380.06 263.197 382.789 264.828 384.624L265.277 384.225ZM265.814 378.817C267.191 377.613 269.376 377.676 270.976 379.01L271.36 378.549C269.573 377.059 267.054 376.935 265.419 378.365L265.814 378.817ZM270.979 379.012C275.407 382.621 281.152 382.809 285.569 380.829C289.986 378.848 293.134 374.665 292.258 369.508L291.667 369.608C292.485 374.425 289.563 378.38 285.324 380.281C281.085 382.182 275.586 381.994 271.358 378.547L270.979 379.012ZM292.258 369.507C291.106 362.832 286.507 358.677 280.05 357.338C273.611 356.003 265.331 357.463 256.728 361.953L257.005 362.485C265.527 358.037 273.665 356.627 279.928 357.926C286.174 359.221 290.561 363.206 291.667 369.609L292.258 369.507ZM256.567 362.223C256.66 368.61 256.379 375.092 255.815 381.198L256.412 381.253C256.978 375.127 257.261 368.624 257.166 362.215L256.567 362.223ZM255.816 381.187C255.305 385.18 253.786 387.696 251.398 388.835C248.992 389.981 245.609 389.779 241.262 388.097L241.045 388.656C245.448 390.361 249.028 390.629 251.656 389.376C254.302 388.115 255.887 385.362 256.411 381.263L255.816 381.187ZM241.269 388.1C238.808 387.068 236.532 385.932 234.708 384.623C232.882 383.314 231.53 381.848 230.883 380.165C229.604 376.838 231.018 372.45 237.685 366.393L237.282 365.949C230.588 372.03 228.898 376.674 230.323 380.38C231.029 382.215 232.482 383.765 234.358 385.111C236.236 386.457 238.558 387.614 241.037 388.653L241.269 388.1ZM237.684 366.394C241.341 363.112 245.091 360.3 248.84 357.957L248.522 357.448C244.743 359.81 240.965 362.643 237.283 365.948L237.684 366.394ZM248.98 357.697C248.886 352.233 248.604 346.956 248.132 341.961L247.535 342.018C248.005 346.996 248.287 352.257 248.381 357.708L248.98 357.697ZM247.782 341.694C242.429 342.633 236.985 343.29 231.353 343.572L231.383 344.171C237.042 343.888 242.512 343.228 247.886 342.285L247.782 341.694ZM231.355 343.572C229.266 343.659 227.528 342.005 227.528 339.919H226.928C226.928 342.35 228.953 344.272 231.38 344.171L231.355 343.572ZM227.527 339.906C227.441 337.914 229.094 336.166 231.099 336.079L231.072 335.48C228.749 335.581 226.826 337.597 226.928 339.932L227.527 339.906ZM231.101 336.079C236.568 335.796 241.947 335.23 246.954 334.191L246.832 333.604C241.865 334.635 236.518 335.198 231.07 335.48L231.101 336.079ZM247.19 333.857C246.436 328.391 245.493 323.486 244.454 319.52L243.874 319.672C244.905 323.609 245.844 328.49 246.596 333.939L247.19 333.857ZM244.454 319.52C243.93 317.511 245.064 315.515 247.063 314.993L246.911 314.413C244.582 315.02 243.269 317.352 243.874 319.671L244.454 319.52ZM247.051 314.996C249.077 314.556 251.257 315.706 251.777 317.787L252.359 317.641C251.75 315.206 249.224 313.91 246.923 314.41L247.051 314.996ZM251.778 317.792C252.809 321.633 253.748 326.606 254.499 332.15L255.094 332.07C254.34 326.51 253.397 321.51 252.358 317.636L251.778 317.792ZM254.875 332.399C257.988 331.55 260.918 330.606 263.662 329.47L263.432 328.916C260.719 330.039 257.815 330.976 254.718 331.82L254.875 332.399ZM263.661 329.471C265.582 328.685 267.766 329.558 268.639 331.392L269.181 331.134C268.172 329.016 265.652 328.008 263.433 328.915L263.661 329.471ZM268.637 331.387C269.508 333.303 268.638 335.472 266.727 336.254L266.954 336.81C269.182 335.898 270.194 333.363 269.183 331.139L268.637 331.387ZM266.727 336.254C263.259 337.66 259.508 338.88 255.66 339.912L255.815 340.491C259.682 339.454 263.458 338.227 266.953 336.81L266.727 336.254ZM255.439 340.228C255.815 344.462 256.191 348.972 256.379 353.575L256.978 353.55C256.79 348.932 256.413 344.41 256.036 340.175L255.439 340.228ZM256.798 353.838C266.254 349.718 275.781 348.605 284.075 350.841L284.231 350.262C275.777 347.982 266.109 349.127 256.558 353.288L256.798 353.838ZM302.14 340.824C303.867 342.033 304.15 344.474 302.914 346.24L303.405 346.584C304.803 344.586 304.521 341.758 302.485 340.332L302.14 340.824ZM302.918 346.234C301.706 347.878 299.45 348.149 297.786 346.923L297.43 347.406C299.341 348.814 301.978 348.521 303.401 346.59L302.918 346.234ZM297.781 346.919C292.932 343.497 286.763 341.412 280.133 340.844L280.081 341.442C286.623 342.002 292.686 344.058 297.435 347.41L297.781 346.919ZM280.133 340.844C278.124 340.669 276.556 338.921 276.643 336.922L276.044 336.895C275.942 339.225 277.761 341.24 280.081 341.441L280.133 340.844ZM276.642 336.933C276.818 334.829 278.659 333.176 280.741 333.35L280.791 332.752C278.356 332.549 276.245 334.472 276.044 336.884L276.642 336.933ZM280.745 333.35C288.786 333.911 296.446 336.623 302.134 340.819L302.491 340.337C296.7 336.065 288.929 333.32 280.787 332.751L280.745 333.35ZM240.263 379.422C242.306 380.479 243.807 381.259 244.908 381.77C245.459 382.025 245.918 382.217 246.3 382.343C246.679 382.468 247.004 382.536 247.281 382.525C247.571 382.513 247.816 382.414 247.998 382.207C248.169 382.013 248.259 381.755 248.316 381.478C248.373 381.198 248.404 380.862 248.429 380.484C248.454 380.094 248.474 379.675 248.509 379.177L247.911 379.134C247.876 379.624 247.854 380.079 247.83 380.444C247.805 380.821 247.776 381.122 247.728 381.358C247.679 381.597 247.616 381.733 247.548 381.81C247.493 381.873 247.414 381.919 247.257 381.925C247.087 381.932 246.842 381.89 246.488 381.773C246.138 381.658 245.704 381.477 245.161 381.225C244.074 380.722 242.588 379.949 240.538 378.889L240.263 379.422ZM248.509 379.178C248.698 376.723 248.886 371.635 248.98 367.306L248.381 367.293C248.287 371.621 248.098 376.695 247.911 379.132L248.509 379.178ZM248.508 367.055C245.294 369.323 242.551 371.688 240.372 373.961L240.805 374.376C242.955 372.133 245.668 369.793 248.854 367.545L248.508 367.055ZM240.377 373.956C239.549 374.784 238.962 375.453 238.59 376.012C238.221 376.565 238.033 377.053 238.079 377.504C238.126 377.97 238.413 378.316 238.794 378.603C239.172 378.887 239.687 379.146 240.271 379.426L240.53 378.885C239.938 378.601 239.477 378.366 239.155 378.123C238.836 377.884 238.699 377.671 238.676 377.443C238.651 377.2 238.746 376.859 239.089 376.345C239.428 375.836 239.982 375.2 240.801 374.381L240.377 373.956ZM370.152 333.051L369.868 332.956L369.747 333.319L370.128 333.35L370.152 333.051ZM363.848 386.306L363.813 386.008L363.812 386.008L363.848 386.306ZM359.238 382.449L358.939 382.473L358.939 382.473L359.238 382.449ZM363.189 377.932L363.167 377.633L363.166 377.633L363.189 377.932ZM367.329 340.954L367.335 340.654L367.119 340.65L367.047 340.854L367.329 340.954ZM333.739 383.766L333.793 383.471L333.793 383.471L333.739 383.766ZM336.279 344.436L336.483 344.656L336.608 344.541L336.573 344.375L336.279 344.436ZM334.303 327.123H334.003L334.004 327.132L334.303 327.123ZM342.489 327.029H342.189L342.19 327.037L342.489 327.029ZM343.619 339.073L343.323 339.123L343.397 339.557L343.774 339.329L343.619 339.073ZM361.496 332.957L361.537 333.254L361.717 333.229L361.778 333.058L361.496 332.957ZM365.354 320.725L365.643 320.805L365.644 320.801L365.354 320.725ZM370.34 317.714L370.416 317.424L370.413 317.423L370.34 317.714ZM373.257 322.701L373.547 322.778L373.548 322.773L373.257 322.701ZM349.829 358.832L349.563 358.971L349.819 359.46L350.09 358.979L349.829 358.832ZM358.109 341.801L358.385 341.919L358.608 341.393L358.049 341.507L358.109 341.801ZM345.406 347.164L345.238 346.916L345.062 347.035L345.116 347.24L345.406 347.164ZM332.61 362.689L332.324 362.597L332.321 362.609L332.61 362.689ZM344.748 366.924L344.993 367.097L345.106 366.936L345.004 366.768L344.748 366.924ZM338.538 352.998L338.824 352.909L338.669 352.408L338.316 352.796L338.538 352.998ZM370.128 333.35C384.583 334.512 393.28 346.452 393.234 358.725C393.211 364.857 391.003 371.065 386.237 376.044C381.471 381.023 374.131 384.792 363.813 386.008L363.883 386.604C374.313 385.375 381.791 381.557 386.67 376.459C391.549 371.362 393.81 365.003 393.834 358.727C393.881 346.183 384.984 333.942 370.176 332.752L370.128 333.35ZM363.812 386.008C361.638 386.269 359.712 384.616 359.537 382.425L358.939 382.473C359.14 384.985 361.353 386.908 363.884 386.604L363.812 386.008ZM359.537 382.425C359.363 380.248 361.016 378.407 363.213 378.231L363.166 377.633C360.659 377.834 358.736 379.945 358.939 382.473L359.537 382.425ZM363.212 378.231C378.257 377.092 385.453 367.86 385.777 358.784C386.1 349.719 379.552 340.893 367.335 340.654L367.324 341.254C379.194 341.486 385.489 350.021 385.178 358.762C384.866 367.493 377.949 376.514 363.167 377.633L363.212 378.231ZM367.047 340.854C364.89 346.949 359.702 358.218 353.46 367.664C350.338 372.388 346.962 376.64 343.581 379.562C340.19 382.492 336.854 384.034 333.793 383.471L333.685 384.061C337.022 384.674 340.543 382.981 343.973 380.016C347.414 377.043 350.825 372.739 353.96 367.995C360.231 358.505 365.441 347.192 367.612 341.054L367.047 340.854ZM333.793 383.471C330.397 382.851 327.912 381.027 326.321 378.417C324.725 375.8 324.02 372.377 324.229 368.563C324.648 360.933 328.725 351.807 336.483 344.656L336.076 344.215C328.215 351.461 324.059 360.729 323.63 368.53C323.416 372.431 324.134 375.983 325.808 378.729C327.487 381.483 330.118 383.41 333.685 384.061L333.793 383.471ZM336.573 344.375C335.448 338.936 334.791 333.12 334.603 327.114L334.004 327.132C334.192 333.17 334.853 339.021 335.986 344.497L336.573 344.375ZM334.603 327.123C334.603 324.936 336.257 323.283 338.443 323.283V322.683C335.926 322.683 334.003 324.605 334.003 327.123H334.603ZM338.443 323.283C340.442 323.283 342.189 325.031 342.189 327.029H342.789C342.789 324.699 340.773 322.683 338.443 322.683V323.283ZM342.19 327.037C342.284 330.528 342.567 334.683 343.323 339.123L343.914 339.022C343.165 334.618 342.883 330.493 342.789 327.021L342.19 327.037ZM343.774 339.329C348.723 336.341 354.706 334.19 361.537 333.254L361.455 332.659C354.549 333.606 348.487 335.782 343.463 338.816L343.774 339.329ZM361.778 333.058C363.193 329.098 364.512 324.857 365.643 320.805L365.065 320.644C363.937 324.685 362.622 328.912 361.213 332.856L361.778 333.058ZM365.644 320.801C366.17 318.785 368.179 317.483 370.268 318.005L370.413 317.423C367.985 316.816 365.667 318.336 365.063 320.649L365.644 320.801ZM370.265 318.004C372.269 318.527 373.491 320.529 372.966 322.628L373.548 322.773C374.153 320.356 372.74 318.03 370.416 317.424L370.265 318.004ZM372.967 322.623C372.216 325.441 371.183 329.011 369.868 332.956L370.437 333.146C371.756 329.187 372.793 325.606 373.547 322.778L372.967 322.623ZM350.09 358.979C352.636 354.452 355.464 348.797 358.385 341.919L357.832 341.684C354.92 348.543 352.102 354.179 349.567 358.685L350.09 358.979ZM358.049 341.507C353.398 342.456 349.033 344.354 345.238 346.916L345.574 347.413C349.307 344.894 353.598 343.028 358.169 342.095L358.049 341.507ZM345.116 347.24C346.155 351.209 347.574 355.183 349.563 358.971L350.094 358.692C348.131 354.953 346.727 351.023 345.696 347.088L345.116 347.24ZM332.321 362.609C331.375 365.992 331.002 368.898 331.151 371.125C331.298 373.332 331.966 374.965 333.205 375.654C334.461 376.352 336.139 375.998 338.088 374.632C340.05 373.257 342.373 370.803 344.993 367.097L344.503 366.75C341.901 370.431 339.625 372.822 337.744 374.141C335.849 375.468 334.44 375.654 333.497 375.13C332.537 374.596 331.893 373.241 331.749 371.085C331.607 368.948 331.963 366.115 332.899 362.77L332.321 362.609ZM345.004 366.768C342.57 362.743 340.416 358.061 338.824 352.909L338.251 353.087C339.858 358.285 342.032 363.012 344.491 367.079L345.004 366.768ZM338.316 352.796C335.471 355.925 333.375 359.349 332.324 362.597L332.895 362.782C333.914 359.632 335.959 356.281 338.76 353.2L338.316 352.796ZM477.228 380.002L477.308 380.292L477.312 380.29L477.228 380.002ZM482.215 382.919L482.509 382.862L482.508 382.858L482.215 382.919ZM478.922 388.376L478.852 388.085L478.848 388.086L478.922 388.376ZM445.802 377.18L446.049 377.009L446.048 377.008L445.802 377.18ZM455.305 334.838L455.506 335.061L456.206 334.428L455.269 334.541L455.305 334.838ZM423.126 335.309L423.151 335.01L423.138 335.009L423.126 335.309ZM419.362 330.793L419.064 330.755L419.063 330.769L419.362 330.793ZM423.972 327.029L423.947 327.328L423.949 327.328L423.972 327.029ZM478.169 321.007L478.07 320.724L478.066 320.725L478.169 321.007ZM483.626 323.359L483.906 323.25L483.903 323.243L483.899 323.235L483.626 323.359ZM481.274 328.817L481.378 329.098L481.383 329.096L481.274 328.817ZM469.889 332.204L469.821 331.912L469.772 331.923L469.729 331.95L469.889 332.204ZM453.141 373.134L453.379 372.951L453.379 372.951L453.141 373.134ZM493.412 345.941L493.689 345.827L493.688 345.826L493.412 345.941ZM491.906 349.893L492.026 350.168L492.033 350.165L491.906 349.893ZM488.143 348.294L488.423 348.188L488.423 348.187L488.143 348.294ZM481.462 338.32L481.25 338.532L481.257 338.539L481.462 338.32ZM481.368 334.368L481.165 334.147L481.156 334.156L481.147 334.165L481.368 334.368ZM485.414 334.274L485.211 334.495L485.214 334.497L485.414 334.274ZM477.887 337.944L477.683 338.164L477.684 338.165L477.887 337.944ZM485.79 349.423L486.068 349.308L486.066 349.304L485.79 349.423ZM484.097 353.469L483.976 353.194L483.976 353.194L484.097 353.469ZM480.333 351.775L480.616 351.675L480.613 351.668L480.333 351.775ZM473.935 342.272L474.136 342.049L474.129 342.043L473.935 342.272ZM473.652 338.226L473.865 338.438L473.873 338.429L473.882 338.42L473.652 338.226ZM477.312 380.29C479.409 379.679 481.488 380.9 481.921 382.98L482.508 382.858C482.001 380.422 479.563 379.009 477.144 379.714L477.312 380.29ZM481.92 382.976C482.364 385.284 481.029 387.562 478.852 388.085L478.992 388.668C481.519 388.062 483.006 385.447 482.509 382.862L481.92 382.976ZM478.848 388.086C465.969 391.352 452.837 386.867 446.049 377.009L445.554 377.35C452.503 387.44 465.905 391.987 478.995 388.667L478.848 388.086ZM446.048 377.008C439.651 367.831 438.951 350.026 455.506 335.061L455.104 334.616C438.35 349.76 438.967 367.898 445.555 377.351L446.048 377.008ZM455.269 334.541C445.128 335.761 434.234 335.949 423.151 335.01L423.1 335.608C434.222 336.55 445.157 336.362 455.341 335.136L455.269 334.541ZM423.138 335.009C421.068 334.923 419.485 333.018 419.661 330.816L419.063 330.769C418.863 333.271 420.666 335.507 423.113 335.609L423.138 335.009ZM419.66 330.83C419.922 328.729 421.851 327.153 423.947 327.328L423.997 326.73C421.577 326.528 419.366 328.339 419.064 330.755L419.66 330.83ZM423.949 327.328C444.398 328.93 462.697 326.952 478.271 321.289L478.066 320.725C462.591 326.353 444.382 328.327 423.996 326.73L423.949 327.328ZM478.267 321.29C480.283 320.589 482.475 321.552 483.353 323.484L483.899 323.235C482.895 321.026 480.383 319.919 478.07 320.724L478.267 321.29ZM483.347 323.469C484.135 325.482 483.17 327.752 481.165 328.537L481.383 329.096C483.706 328.187 484.811 325.564 483.906 323.25L483.347 323.469ZM481.17 328.535C477.607 329.848 473.855 330.974 469.821 331.912L469.957 332.496C474.014 331.553 477.79 330.42 481.378 329.098L481.17 328.535ZM469.729 331.95C460.563 337.714 454.069 345.05 451.005 352.448C447.939 359.852 448.307 367.333 452.903 373.316L453.379 372.951C448.941 367.173 448.557 359.929 451.559 352.678C454.565 345.421 460.961 338.173 470.049 332.458L469.729 331.95ZM452.903 373.316C459.499 381.921 469.719 382.378 477.308 380.292L477.148 379.713C469.682 381.766 459.767 381.283 453.379 372.951L452.903 373.316ZM493.134 346.055C493.73 347.502 493.05 349.028 491.779 349.621L492.033 350.165C493.585 349.441 494.411 347.579 493.689 345.827L493.134 346.055ZM491.786 349.618C490.442 350.206 488.929 349.537 488.423 348.188L487.862 348.399C488.485 350.061 490.36 350.897 492.026 350.168L491.786 349.618ZM488.423 348.187C486.901 344.192 484.711 340.955 481.667 338.101L481.257 338.539C484.235 341.33 486.373 344.491 487.862 348.4L488.423 348.187ZM481.674 338.108C480.661 337.094 480.661 335.584 481.589 334.571L481.147 334.165C480.005 335.411 480.005 337.287 481.25 338.532L481.674 338.108ZM481.571 334.589C482.598 333.647 484.209 333.577 485.211 334.495L485.617 334.053C484.36 332.901 482.396 333.019 481.165 334.147L481.571 334.589ZM485.214 334.497C488.845 337.756 490.985 340.916 493.135 346.057L493.688 345.826C491.51 340.617 489.322 337.378 485.614 334.051L485.214 334.497ZM477.684 338.165C481.035 341.237 483.459 344.776 485.515 349.541L486.066 349.304C483.982 344.472 481.512 340.86 478.089 337.722L477.684 338.165ZM485.513 349.537C486.104 350.972 485.346 352.594 483.976 353.194L484.217 353.743C485.858 353.025 486.794 351.072 486.068 349.308L485.513 349.537ZM483.976 353.194C482.637 353.78 481.125 353.117 480.616 351.675L480.05 351.875C480.67 353.632 482.545 354.475 484.217 353.743L483.976 353.194ZM480.613 351.668C479.092 347.675 477.184 344.812 474.136 342.049L473.733 342.494C476.707 345.189 478.563 347.971 480.053 351.882L480.613 351.668ZM474.129 342.043C473.022 341.106 472.875 339.427 473.865 338.438L473.44 338.014C472.172 339.282 472.401 341.367 473.741 342.501L474.129 342.043ZM473.882 338.42C474.811 337.32 476.591 337.156 477.683 338.164L478.09 337.723C476.735 336.473 474.564 336.685 473.423 338.032L473.882 338.42ZM577.341 380.19L577.637 380.143L577.635 380.13L577.632 380.118L577.341 380.19ZM574.048 385.271L573.978 384.98L573.977 384.98L574.048 385.271ZM522.862 377.556L523.137 377.436L523.137 377.436L522.862 377.556ZM532.083 349.893L532.306 350.094L532.506 349.873L532.286 349.672L532.083 349.893ZM527.567 345.753L527.769 345.532L527.769 345.531L527.567 345.753ZM519.287 328.628L518.987 328.616L518.987 328.618L519.287 328.628ZM523.803 324.583L523.816 324.283L523.815 324.283L523.803 324.583ZM527.661 328.911L527.96 328.926L527.961 328.924L527.661 328.911ZM531.33 337.849L531.543 337.637L531.543 337.637L531.33 337.849ZM537.823 344.059L537.618 344.279L537.823 344.47L538.028 344.278L537.823 344.059ZM555.982 329.475L556.159 329.718L556.903 329.175H555.982V329.475ZM553.16 329.663L553.13 329.365L553.119 329.366L553.108 329.368L553.16 329.663ZM548.831 326.182L548.532 326.195L548.532 326.195L548.831 326.182ZM552.783 321.666L552.796 321.966L552.806 321.965L552.783 321.666ZM566.991 323.736L567.114 323.462L567.103 323.458L566.991 323.736ZM567.461 330.887L567.293 330.638L567.289 330.641L567.461 330.887ZM543.562 349.329L543.358 349.109L543.121 349.329L543.358 349.549L543.562 349.329ZM557.017 361.654L556.815 361.876L556.818 361.879L557.017 361.654ZM557.205 367.488L556.987 367.282L556.981 367.288L556.976 367.295L557.205 367.488ZM551.372 367.676L551.584 367.464L551.575 367.455L551.372 367.676ZM537.729 355.162L537.931 354.941L537.709 354.737L537.506 354.961L537.729 355.162ZM529.825 372.569L529.529 372.621L529.53 372.621L529.825 372.569ZM572.354 377.085L572.424 377.377L572.43 377.376L572.354 377.085ZM577.045 380.238C577.398 382.447 576.166 384.454 573.978 384.98L574.118 385.563C576.634 384.959 578.036 382.638 577.637 380.143L577.045 380.238ZM573.977 384.98C559.547 388.505 548.136 389.647 539.678 388.385C531.232 387.126 525.766 383.477 523.137 377.436L522.587 377.676C525.322 383.96 531.005 387.698 539.59 388.979C548.162 390.258 559.662 389.095 574.119 385.563L573.977 384.98ZM523.137 377.436C519.265 368.585 524.218 359.028 532.306 350.094L531.861 349.692C523.765 358.635 518.556 368.461 522.587 377.676L523.137 377.436ZM532.286 349.672L527.769 345.532L527.364 345.974L531.88 350.114L532.286 349.672ZM527.769 345.531C525.188 343.185 523.078 340.954 521.644 338.318C520.214 335.688 519.447 332.637 519.587 328.639L518.987 328.618C518.844 332.712 519.63 335.871 521.117 338.604C522.6 341.331 524.77 343.616 527.365 345.975L527.769 345.531ZM519.586 328.64C519.673 326.465 521.593 324.794 523.791 324.882L523.815 324.283C521.309 324.183 519.088 326.087 518.987 328.616L519.586 328.64ZM523.791 324.882C525.867 324.969 527.449 326.883 527.361 328.898L527.961 328.924C528.061 326.61 526.255 324.384 523.816 324.283L523.791 324.882ZM527.361 328.895C527.266 330.757 527.432 332.286 528.018 333.739C528.603 335.19 529.597 336.541 531.118 338.062L531.543 337.637C530.053 336.147 529.118 334.863 528.574 333.515C528.031 332.169 527.868 330.734 527.96 328.926L527.361 328.895ZM531.118 338.062C532.345 339.288 534.7 341.549 537.618 344.279L538.028 343.84C535.112 341.112 532.762 338.857 531.543 337.637L531.118 338.062ZM538.028 344.278C543.941 338.741 550.608 333.763 556.159 329.718L555.806 329.233C550.253 333.279 543.56 338.275 537.618 343.84L538.028 344.278ZM555.982 329.175C555.118 329.175 554.069 329.271 553.13 329.365L553.189 329.962C554.132 329.868 555.153 329.775 555.982 329.775V329.175ZM553.108 329.368C551.124 329.713 549.217 328.154 549.131 326.169L548.532 326.195C548.633 328.539 550.867 330.367 553.211 329.959L553.108 329.368ZM549.131 326.17C549.043 324.057 550.722 322.052 552.796 321.965L552.771 321.366C550.328 321.468 548.431 323.79 548.532 326.195L549.131 326.17ZM552.806 321.965C557.658 321.592 562.504 322.245 566.878 324.014L567.103 323.458C562.634 321.651 557.694 320.987 552.76 321.367L552.806 321.965ZM566.867 324.009C569.55 325.221 569.752 328.97 567.293 330.638L567.63 331.135C570.44 329.228 570.265 324.885 567.114 323.462L566.867 324.009ZM567.289 330.641C561.556 334.683 551.562 341.47 543.358 349.109L543.767 349.548C551.934 341.944 561.888 335.183 567.634 331.132L567.289 330.641ZM543.358 349.549C548.44 354.254 553.71 359.054 556.815 361.876L557.219 361.432C554.114 358.61 548.846 353.812 543.766 349.108L543.358 349.549ZM556.818 361.879C558.381 363.268 558.475 365.707 556.987 367.282L557.424 367.694C559.135 365.882 559.041 363.052 557.217 361.43L556.818 361.879ZM556.976 367.295C555.587 368.944 553.157 369.037 551.584 367.464L551.16 367.888C552.974 369.702 555.813 369.608 557.435 367.681L556.976 367.295ZM551.575 367.455L537.931 354.941L537.526 355.383L551.169 367.897L551.575 367.455ZM537.506 354.961C534.814 357.937 532.583 360.972 531.143 363.947C529.703 366.921 529.044 369.857 529.529 372.621L530.12 372.517C529.664 369.918 530.276 367.114 531.683 364.208C533.089 361.302 535.28 358.315 537.951 355.363L537.506 354.961ZM529.53 372.621C529.945 374.967 531.225 376.836 533.315 378.209C535.395 379.577 538.27 380.451 541.883 380.842C549.109 381.623 559.381 380.485 572.424 377.377L572.285 376.794C559.264 379.896 549.071 381.016 541.948 380.245C538.387 379.86 535.616 379.004 533.645 377.708C531.682 376.418 530.505 374.688 530.12 372.517L529.53 372.621ZM572.43 377.376C574.42 376.856 576.523 378.155 577.05 380.263L577.632 380.118C577.03 377.71 574.616 376.185 572.278 376.795L572.43 377.376ZM641.699 325.994L641.871 325.748L641.865 325.744L641.859 325.74L641.699 325.994ZM619.023 320.819L619.035 321.119L619.049 321.118L619.023 320.819ZM619.023 312.257L619.035 312.556L619.044 312.556L619.023 312.257ZM645.839 318.561L645.685 318.818L645.687 318.819L645.839 318.561ZM647.345 324.771L647.6 324.929L647.606 324.918L647.345 324.771ZM620.623 392.328L620.539 392.04L620.539 392.04L620.623 392.328ZM615.354 389.223L615.06 389.284L615.062 389.294L615.065 389.304L615.354 389.223ZM618.459 383.954L618.543 384.242L618.543 384.242L618.459 383.954ZM645.181 348.764L644.89 348.837L644.891 348.841L645.181 348.764ZM613.754 351.304L613.978 351.504L613.98 351.502L613.754 351.304ZM607.826 351.681L608.032 351.463L608.023 351.454L608.014 351.447L607.826 351.681ZM607.168 345.283L606.942 345.085L606.935 345.094L607.168 345.283ZM651.579 341.989L651.837 341.836L651.835 341.834L651.579 341.989ZM638.124 384.142L637.951 383.897L637.948 383.899L638.124 384.142ZM641.859 325.74C634.93 321.374 627.807 319.762 618.998 320.52L619.049 321.118C627.74 320.37 634.731 321.958 641.539 326.248L641.859 325.74ZM619.011 320.519C616.813 320.607 615.089 319.033 615.089 316.961H614.489C614.489 319.406 616.529 321.219 619.035 321.119L619.011 320.519ZM615.089 316.961C615.089 314.654 616.865 312.643 619.035 312.556L619.011 311.957C616.478 312.058 614.489 314.375 614.489 316.961H615.089ZM619.044 312.556C628.671 311.902 638.96 314.802 645.685 318.818L645.993 318.303C639.169 314.228 628.759 311.294 619.003 311.957L619.044 312.556ZM645.687 318.819C647.604 319.952 648.234 322.588 647.084 324.623L647.606 324.918C648.902 322.625 648.215 319.616 645.992 318.302L645.687 318.819ZM647.09 324.613C645.953 326.448 643.606 326.963 641.871 325.748L641.527 326.24C643.556 327.66 646.29 327.045 647.6 324.929L647.09 324.613ZM620.539 392.04C618.456 392.648 616.261 391.349 615.643 389.142L615.065 389.304C615.764 391.802 618.273 393.326 620.707 392.616L620.539 392.04ZM615.647 389.162C615.207 387.049 616.443 384.855 618.543 384.242L618.375 383.666C615.958 384.371 614.559 386.881 615.06 389.284L615.647 389.162ZM618.543 384.242C631.067 380.556 638.546 374.448 642.521 367.855C646.494 361.265 646.949 354.218 645.47 348.687L644.891 348.841C646.33 354.225 645.891 361.103 642.007 367.545C638.125 373.984 630.785 380.013 618.374 383.666L618.543 384.242ZM645.472 348.691C644.058 343.035 638.696 340.579 632.444 341.055C626.186 341.532 618.94 344.936 613.529 351.107L613.98 351.502C619.295 345.442 626.398 342.118 632.489 341.653C638.587 341.189 643.575 343.579 644.89 348.837L645.472 348.691ZM613.531 351.104C612.034 352.777 609.594 352.937 608.032 351.463L607.62 351.899C609.447 353.624 612.275 353.408 613.978 351.504L613.531 351.104ZM608.014 351.447C606.261 350.044 605.907 347.317 607.401 345.471L606.935 345.094C605.229 347.2 605.629 350.307 607.639 351.915L608.014 351.447ZM607.394 345.48C613.738 338.203 622.766 334.121 631.195 333.491C639.629 332.861 647.401 335.687 651.322 342.145L651.835 341.834C647.759 335.119 639.724 332.252 631.15 332.893C622.572 333.533 613.394 337.684 606.942 345.085L607.394 345.48ZM651.321 342.143C657.347 352.248 655.528 371.462 637.951 383.897L638.297 384.387C656.098 371.794 658.042 352.243 651.837 341.836L651.321 342.143ZM637.948 383.899C633.183 387.356 627.288 390.072 620.539 392.04L620.707 392.616C627.506 390.633 633.467 387.891 638.3 384.385L637.948 383.899ZM697.213 370.029H697.513L697.513 370.021L697.213 370.029ZM695.99 319.784L696.29 319.777L696.29 319.774L695.99 319.784ZM705.775 319.784L705.476 319.774L705.475 319.777L705.775 319.784ZM704.552 370.029L704.252 370.021V370.029H704.552ZM700.883 373.398C698.983 373.398 697.513 371.844 697.513 370.029H696.913C696.913 372.165 698.642 373.998 700.883 373.998V373.398ZM697.513 370.021L696.29 319.777L695.69 319.791L696.913 370.036L697.513 370.021ZM696.29 319.774C696.202 317.221 698.318 315.097 700.883 315.097V314.497C697.99 314.497 695.59 316.89 695.69 319.794L696.29 319.774ZM700.883 315.097C703.448 315.097 705.564 317.221 705.476 319.774L706.075 319.794C706.175 316.89 703.775 314.497 700.883 314.497V315.097ZM705.475 319.777L704.252 370.021L704.852 370.036L706.075 319.791L705.475 319.777ZM704.252 370.029C704.252 371.844 702.782 373.398 700.883 373.398V373.998C703.123 373.998 704.852 372.165 704.852 370.029H704.252ZM700.883 390.899C697.558 390.899 694.69 388.202 694.69 384.801H694.09C694.09 388.551 697.244 391.499 700.883 391.499V390.899ZM694.69 384.801C694.69 381.394 697.564 378.609 700.883 378.609V378.009C697.238 378.009 694.09 381.057 694.09 384.801H694.69ZM700.883 378.609C704.292 378.609 707.075 381.391 707.075 384.801H707.675C707.675 381.06 704.624 378.009 700.883 378.009V378.609ZM707.075 384.801C707.075 388.114 704.295 390.899 700.883 390.899V391.499C704.621 391.499 707.675 388.451 707.675 384.801H707.075Z" fill="black"/>
</svg>
